<svg version="1.1" id="Layer_1" xmlns="http://www.w3.org/2000/svg" xmlns:xlink="http://www.w3.org/1999/xlink" x="0px" y="0px"
	 width="100%" viewBox="0 0 1500 1500" enable-background="new 0 0 1500 1500" xml:space="preserve">
<path fill="#FFFFFF" opacity="1.000000" stroke="none" 
	d="
M830.000000,1501.000000 
	C553.333374,1501.000000 277.166779,1501.000000 1.000111,1501.000000 
	C1.000074,1001.000122 1.000074,501.000275 1.000037,1.000313 
	C500.999756,1.000208 1000.999512,1.000208 1500.999512,1.000104 
	C1500.999634,500.999664 1500.999634,1000.999329 1500.999756,1500.999512 
	C1277.500000,1501.000000 1054.000000,1501.000000 830.000000,1501.000000 
M1313.760742,772.194702 
	C1313.893311,771.829895 1314.025757,771.465149 1314.059570,771.060852 
	C1314.059570,771.060852 1314.105469,771.156738 1314.731812,771.167480 
	C1314.866211,770.805664 1315.000732,770.443909 1315.040039,770.048218 
	C1315.040039,770.048218 1315.088379,770.136841 1315.709595,770.143250 
	C1315.844604,769.784729 1315.979614,769.426208 1316.024658,769.032532 
	C1316.024658,769.032532 1316.073364,769.116028 1316.688843,769.118530 
	C1316.823120,768.763733 1316.957397,768.408936 1317.009644,768.019104 
	C1317.009644,768.019104 1317.058838,768.093506 1317.667114,768.098450 
	C1317.805420,767.748535 1317.943726,767.398682 1318.008667,767.010010 
	C1318.008667,767.010010 1318.050537,767.081848 1318.650513,767.078552 
	C1318.793701,766.734863 1318.936890,766.391174 1319.020874,765.999939 
	C1319.020874,765.999939 1319.036865,766.074036 1319.695435,766.019104 
	C1319.960571,765.671143 1320.225830,765.323120 1320.932373,764.509644 
	C1324.747314,760.096497 1328.917358,755.939026 1332.312500,751.223572 
	C1343.653442,735.472351 1355.343750,719.917175 1365.695557,703.526123 
	C1374.558960,689.491882 1382.268555,674.658020 1389.584351,659.734558 
	C1399.428955,639.652832 1406.664917,618.526672 1412.090698,596.807983 
	C1414.703369,586.349548 1417.481445,575.927856 1419.831665,565.410583 
	C1420.823975,560.970581 1420.906006,556.327148 1422.139771,551.408875 
	C1423.047363,542.351135 1423.954956,533.293457 1424.976929,523.386780 
	C1425.355469,518.603333 1425.734009,513.819946 1426.828369,508.558472 
	C1426.212402,486.759613 1425.620361,464.959930 1424.904541,443.164398 
	C1424.871094,442.146912 1423.730469,441.165802 1423.310303,439.424042 
	C1422.876099,433.812653 1423.017334,428.083344 1421.896362,422.612732 
	C1418.906982,408.025574 1415.389282,393.546448 1412.055054,379.030457 
	C1405.924072,352.338409 1395.327881,327.289948 1383.191528,302.916443 
	C1373.704590,283.863953 1363.097778,265.345734 1349.930786,248.541092 
	C1337.803223,233.063156 1325.765869,217.409500 1312.376343,203.057541 
	C1300.899414,190.755676 1287.719238,180.010117 1274.995239,168.917038 
	C1267.446655,162.335938 1259.551147,156.093231 1251.389648,150.291931 
	C1243.933350,144.991852 1235.945679,140.431091 1228.124634,135.655090 
	C1221.035889,131.326309 1214.024170,126.824097 1206.670166,122.989830 
	C1198.955322,118.967453 1190.911865,115.562531 1182.942871,112.044281 
	C1173.207031,107.745964 1163.514893,103.307625 1153.582031,99.510101 
	C1146.843018,96.933670 1139.779907,95.123665 1132.760010,93.380844 
	C1119.349731,90.051567 1105.908936,86.820267 1092.404419,83.901192 
	C1070.842773,79.240486 1049.013428,76.795891 1026.622803,76.210213 
	C1022.054810,75.805870 1017.487061,75.050362 1012.918884,75.048233 
	C877.485352,74.985054 742.051819,74.992920 606.618286,75.037735 
	C604.898499,75.038307 603.178955,75.661728 600.824829,76.098526 
	C589.154663,83.711990 577.529846,91.395996 565.803589,98.922096 
	C548.996887,109.708916 532.079224,120.322838 515.278259,131.118469 
	C500.437714,140.654358 485.716339,150.375504 470.898651,159.947250 
	C451.247131,172.641495 431.576538,185.306580 411.870300,197.915695 
	C394.909576,208.768082 377.842560,219.454681 360.905548,230.343689 
	C345.193604,240.445129 329.641296,250.794876 313.927582,260.893555 
	C296.990234,271.778656 279.899445,282.425079 262.963928,293.313019 
	C247.251205,303.414764 231.707733,313.779846 215.993134,323.878632 
	C199.057159,334.762360 181.959824,345.394928 165.023834,356.278564 
	C148.901978,366.639008 132.935028,377.240295 116.829231,387.626007 
	C104.305817,395.701721 91.673615,403.608704 78.496315,411.921478 
	C78.303085,412.272278 78.109856,412.623077 77.988678,412.996246 
	C77.988678,412.996246 77.947052,412.933319 77.152832,413.315460 
	C77.097069,414.144165 76.992577,414.972900 76.992485,415.801605 
	C76.984833,488.624176 76.985008,561.446716 76.987297,634.269287 
	C76.987328,635.267517 77.021103,636.265747 77.039139,637.263977 
	C77.755646,637.181213 78.472145,637.098389 79.804062,636.720947 
	C85.521042,632.994141 91.204666,629.214905 96.961830,625.551208 
	C109.485184,617.581848 122.075737,609.717896 134.582733,601.723083 
	C145.830002,594.533508 156.989594,587.207031 168.212296,579.978821 
	C175.766739,575.113281 183.395920,570.363403 190.933884,565.472656 
	C201.727753,558.469482 212.430466,551.325439 223.245300,544.355103 
	C231.063599,539.316101 239.055664,534.546692 246.871979,529.504761 
	C257.824402,522.439880 268.645569,515.171631 279.599274,508.108795 
	C287.277008,503.158295 295.139221,498.493896 302.816895,493.543335 
	C313.770233,486.480530 324.589966,479.210571 335.543365,472.147919 
	C343.220856,467.197540 351.075409,462.522125 358.762787,457.586670 
	C369.862305,450.460602 380.855927,443.169769 391.944855,436.027008 
	C399.492188,431.165527 407.166016,426.500397 414.710266,421.634277 
	C425.796021,414.483795 436.786560,407.185669 447.875275,400.039795 
	C455.419525,395.178040 463.109985,390.542938 470.649536,385.673981 
	C481.457489,378.694366 492.138062,371.516998 502.963715,364.565338 
	C515.452393,356.545807 528.070251,348.727722 540.575012,340.732971 
	C551.821655,333.542572 563.018188,326.272858 574.186096,318.960571 
	C582.795654,313.323364 591.326538,307.565887 600.512756,302.034363 
	C601.018799,301.678711 601.524841,301.323059 601.979248,300.957672 
	C601.979248,300.957672 601.953491,301.003540 602.897278,301.001404 
	C738.953979,301.001007 875.010681,300.996185 1011.067383,301.023865 
	C1014.720459,301.024628 1018.373413,301.377441 1022.754456,301.936218 
	C1030.122314,302.621918 1037.499146,303.224548 1044.856323,304.010834 
	C1059.779907,305.605713 1073.938110,310.219940 1087.598511,316.079742 
	C1112.584106,326.797668 1134.458862,341.980957 1152.819214,362.294769 
	C1163.079590,373.646790 1171.619507,386.058716 1179.011719,399.326752 
	C1190.578125,420.086578 1196.750000,442.605286 1200.054443,466.840454 
	C1200.081665,480.498688 1200.108765,494.156952 1200.022217,508.703705 
	C1198.348877,517.692200 1196.963501,526.745972 1194.943604,535.655884 
	C1190.427734,555.574829 1181.894531,573.836365 1170.666260,590.784241 
	C1161.499634,604.620056 1150.916626,617.216125 1138.353149,628.310059 
	C1127.738037,637.683594 1116.357544,645.825500 1104.067261,652.519775 
	C1090.013428,660.174500 1075.322144,666.729492 1059.395752,669.656555 
	C1048.358398,671.684998 1037.241577,673.280212 1025.244507,674.718628 
	C1020.249329,674.812683 1015.254089,674.988098 1010.258911,674.988831 
	C900.984375,675.004517 791.709900,674.995911 682.435364,675.043762 
	C680.633301,675.044556 678.831543,675.688293 676.819763,676.942688 
	C676.806641,750.190308 676.786804,823.437927 676.828552,896.685547 
	C676.829407,898.145020 677.549927,899.604126 677.956177,900.987610 
	C677.956177,900.987610 677.889465,901.029602 677.656067,901.657410 
	C678.109436,902.110413 678.562866,902.563477 679.012390,902.989807 
	C679.012390,902.989807 678.987305,902.979858 679.126831,903.586548 
	C679.433960,903.864502 679.741150,904.142517 680.387390,904.949280 
	C681.887939,906.492798 683.481201,907.957397 684.873474,909.593140 
	C691.988281,917.951660 699.001404,926.396912 706.146423,934.729309 
	C712.986938,942.706421 719.990906,950.543457 726.839600,958.513672 
	C734.098816,966.961548 741.225342,975.523499 748.473999,983.980652 
	C755.206482,991.835632 762.063599,999.583801 768.792542,1007.441711 
	C776.037292,1015.902039 783.156921,1024.469727 790.405273,1032.926880 
	C797.137024,1040.781128 804.005737,1048.517944 810.742615,1056.367920 
	C818.103943,1064.945557 825.361755,1073.612183 832.705811,1082.204834 
	C837.402405,1087.699829 842.215332,1093.095459 846.901855,1098.598877 
	C854.017334,1106.954468 861.018677,1115.407715 868.161011,1123.740234 
	C874.999695,1131.718384 882.000854,1139.557495 888.849243,1147.527466 
	C896.108032,1155.974854 903.237366,1164.533325 910.485596,1172.989868 
	C917.217957,1180.844360 924.071777,1188.594849 930.800476,1196.452515 
	C938.045227,1204.912842 945.167419,1213.478149 952.415894,1221.935181 
	C959.147705,1229.789429 966.013733,1237.528687 972.750427,1245.378906 
	C980.111572,1253.956787 987.361145,1262.630493 994.716797,1271.213135 
	C1001.341064,1278.942383 1008.096558,1286.559448 1014.696289,1294.309326 
	C1021.813110,1302.666138 1028.745972,1311.180054 1035.888916,1319.514282 
	C1042.726074,1327.491699 1049.804932,1335.262207 1056.640015,1343.241455 
	C1063.780762,1351.577515 1070.684204,1360.116821 1077.827148,1368.451050 
	C1084.664429,1376.428711 1091.748169,1384.194702 1098.593018,1392.165894 
	C1107.982910,1403.101074 1117.249756,1414.141968 1127.213379,1425.778931 
	C1128.206421,1425.852417 1129.199463,1425.990234 1130.192505,1425.990356 
	C1228.009033,1426.000122 1325.825684,1426.000000 1423.642212,1425.987183 
	C1424.699707,1425.987061 1425.757080,1425.808960 1427.517334,1425.650757 
	C1426.330200,1424.202515 1425.636475,1423.356201 1424.557617,1422.005981 
	C1419.991455,1416.727295 1415.457153,1411.420532 1410.850830,1406.177246 
	C1405.723145,1400.340698 1400.430176,1394.646973 1395.389160,1388.737549 
	C1388.556763,1380.728149 1381.989136,1372.492554 1375.134888,1364.502197 
	C1368.074097,1356.270996 1360.755249,1348.261841 1353.644897,1340.072266 
	C1348.165039,1333.760620 1342.869507,1327.289185 1337.426514,1320.944946 
	C1330.793579,1313.213867 1324.056763,1305.571533 1317.429443,1297.835571 
	C1310.071289,1289.246582 1302.818481,1280.567139 1295.459229,1271.978882 
	C1288.830566,1264.243286 1282.083130,1256.609497 1275.455566,1248.873169 
	C1268.096680,1240.283203 1260.838013,1231.607544 1253.490234,1223.007935 
	C1248.790771,1217.507812 1243.966187,1212.114380 1239.274414,1206.607910 
	C1232.261108,1198.377075 1225.364502,1190.046753 1218.327026,1181.836914 
	C1211.372925,1173.724365 1204.259644,1165.748413 1197.300659,1157.639893 
	C1190.150513,1149.308716 1183.143188,1140.854980 1175.998657,1132.518921 
	C1169.153442,1124.532349 1162.169312,1116.664917 1155.325317,1108.677246 
	C1148.182251,1100.340820 1141.176147,1091.886963 1134.031982,1083.551514 
	C1127.186768,1075.564941 1120.199707,1067.699829 1113.350830,1059.716309 
	C1106.094604,1051.258179 1098.963135,1042.693237 1091.711304,1034.231323 
	C1084.974609,1026.370361 1078.111938,1018.617432 1071.376221,1010.755615 
	C1064.125244,1002.292236 1056.994751,993.725647 1049.742676,985.263184 
	C1043.004761,977.400696 1036.135254,969.651001 1029.398315,961.787659 
	C1022.146729,953.323669 1014.972839,944.792908 1007.782227,936.276733 
	C1002.815002,930.393738 997.960754,924.412964 992.901672,918.610413 
	C988.071533,913.070496 983.041626,907.704712 978.546936,901.509460 
	C980.326904,901.339600 982.105774,901.035645 983.886963,901.021484 
	C996.259033,900.923096 1008.631714,900.884705 1021.927307,900.973633 
	C1029.510498,900.638977 1037.115234,900.553162 1044.671143,899.901184 
	C1052.509399,899.224731 1060.300415,898.000183 1068.970459,897.051514 
	C1079.767456,895.211243 1090.683960,893.882812 1101.329956,891.395996 
	C1113.565063,888.538025 1125.706299,885.090271 1137.622559,881.104309 
	C1151.920288,876.321716 1165.960815,870.762024 1180.061523,865.404053 
	C1184.133179,863.856873 1188.055298,861.902893 1191.999268,860.036438 
	C1199.327393,856.568542 1206.841064,853.415405 1213.876465,849.424133 
	C1223.706421,843.847290 1233.392212,837.950317 1242.729614,831.588440 
	C1253.310181,824.379517 1263.538696,816.638062 1273.723022,808.869812 
	C1279.670410,804.333313 1285.232666,799.291687 1291.530762,794.138794 
	C1291.711548,793.771301 1291.892334,793.403748 1292.000122,793.021301 
	C1292.000122,793.021301 1292.046997,793.079041 1292.643188,793.060974 
	C1292.788818,792.723755 1292.934570,792.386597 1293.008423,792.008362 
	C1293.008423,792.008362 1293.048706,792.080505 1293.653809,792.076721 
	C1293.797241,791.735168 1293.940796,791.393616 1294.010254,791.009827 
	C1294.010254,791.009827 1294.050537,791.084900 1294.663208,791.099548 
	C1294.811035,790.755432 1294.958984,790.411377 1295.023926,790.020447 
	C1295.023926,790.020447 1295.063599,790.107056 1295.682495,790.123596 
	C1295.830688,789.775818 1295.978882,789.427979 1296.038086,789.036316 
	C1296.038086,789.036316 1296.076904,789.127625 1296.700806,789.147156 
	C1296.850952,788.798157 1297.001099,788.449158 1297.054199,788.057739 
	C1297.054199,788.057739 1297.098267,788.153992 1297.727661,788.176392 
	C1297.875488,787.823547 1298.023315,787.470703 1298.069824,787.073486 
	C1298.069824,787.073486 1298.115601,787.174316 1298.747192,787.207031 
	C1298.898071,786.853516 1299.048950,786.500000 1299.092407,786.092896 
	C1299.092407,786.092896 1299.140869,786.202881 1299.772217,786.237488 
	C1299.924072,785.884827 1300.075928,785.532104 1300.105713,785.138733 
	C1300.105713,785.138733 1300.176147,785.246399 1300.829346,785.293091 
	C1301.557861,784.522034 1302.286377,783.751038 1302.989136,782.986755 
	C1302.989136,782.986755 1302.978638,783.011414 1303.513550,782.905151 
	C1303.684204,782.600647 1303.854980,782.296143 1303.991821,781.990662 
	C1303.991821,781.990662 1303.991333,782.024780 1304.530396,781.924866 
	C1304.698364,781.617981 1304.866211,781.311035 1304.995483,780.994873 
	C1304.995483,780.994873 1305.004150,781.033569 1305.548462,780.941650 
	C1305.711426,780.631042 1305.874512,780.320435 1305.997681,779.997559 
	C1305.997681,779.997559 1306.010132,780.037476 1306.552734,779.940552 
	C1306.713989,779.629517 1306.875122,779.318542 1306.996460,778.996704 
	C1306.996460,778.996704 1307.008057,779.036316 1307.549194,778.933472 
	C1307.709351,778.621887 1307.869385,778.310364 1307.994385,777.995239 
	C1307.994385,777.995239 1307.999023,778.030579 1308.532471,777.910645 
	C1308.694214,777.601440 1308.855835,777.292236 1308.987793,776.989807 
	C1308.987793,776.989807 1308.984863,777.020203 1309.609741,776.798035 
	C1310.479126,775.581421 1311.348511,774.364868 1312.105347,773.102966 
	C1312.105347,773.102966 1312.161499,773.210510 1312.793945,773.218994 
	C1312.923340,772.852600 1313.052734,772.486267 1313.075684,772.083313 
	C1313.075684,772.083313 1313.130127,772.181885 1313.760742,772.194702 
M491.499939,1425.209106 
	C528.255615,1425.209106 565.011353,1425.209106 602.197571,1425.209106 
	C602.197571,1150.055176 602.197571,875.493408 602.197571,600.630981 
	C604.778687,600.630981 606.927795,600.630981 609.076843,600.630981 
	C742.897705,600.630920 876.718567,600.600037 1010.539429,600.656311 
	C1037.728394,600.667725 1062.229248,593.135681 1083.979614,576.481323 
	C1127.448975,543.196594 1140.130615,478.394196 1111.662964,431.764313 
	C1088.902710,394.483032 1055.344116,375.782410 1011.672058,375.754395 
	C876.684692,375.667816 741.697144,375.705627 606.709839,375.834076 
	C603.789795,375.836853 600.450012,376.873840 598.013489,378.493042 
	C525.801208,426.481384 453.693970,474.627808 381.492218,522.632019 
	C378.207550,524.815857 377.025146,527.084473 377.026428,531.020386 
	C377.123260,827.159485 377.114990,1123.298584 377.114990,1419.437744 
	C377.114990,1421.222412 377.114990,1423.007080 377.114990,1425.209106 
	C415.249512,1425.209106 452.874695,1425.209106 491.499939,1425.209106 
M302.147583,623.500000 
	C302.147583,607.796265 302.147583,592.092529 302.147583,575.723816 
	C299.858917,577.194580 298.331787,578.144287 296.836365,579.141479 
	C225.539673,626.683167 154.272415,674.269104 82.884125,721.672729 
	C78.665947,724.473755 77.080673,727.278198 77.083977,732.405518 
	C77.231483,961.355957 77.211594,1190.306396 77.211601,1419.256958 
	C77.211601,1421.052246 77.211609,1422.847534 77.211609,1424.918701 
	C152.346527,1424.918701 227.048508,1424.918701 302.147583,1424.918701 
	C302.147583,1157.969482 302.147583,891.234741 302.147583,623.500000 
z"/>
<path fill="#E41C3D" opacity="1.000000" stroke="none" 
	d="
M1290.968140,794.477356 
	C1285.232666,799.291687 1279.670410,804.333313 1273.723022,808.869812 
	C1263.538696,816.638062 1253.310181,824.379517 1242.729614,831.588440 
	C1233.392212,837.950317 1223.706421,843.847290 1213.876465,849.424133 
	C1206.841064,853.415405 1199.327393,856.568542 1191.999268,860.036438 
	C1188.055298,861.902893 1184.133179,863.856873 1180.061523,865.404053 
	C1165.960815,870.762024 1151.920288,876.321716 1137.622559,881.104309 
	C1125.706299,885.090271 1113.565063,888.538025 1101.329956,891.395996 
	C1090.683960,893.882812 1079.767456,895.211243 1068.279541,896.778076 
	C1052.049805,897.699951 1036.510864,898.895203 1020.506714,900.056641 
	C1006.906250,900.015442 993.770630,899.971130 980.636230,900.072266 
	C979.605103,900.080139 976.309265,898.552795 978.099548,902.262390 
	C983.041626,907.704712 988.071533,913.070496 992.901672,918.610413 
	C997.960754,924.412964 1002.815002,930.393738 1007.782227,936.276733 
	C1014.972839,944.792908 1022.146729,953.323669 1029.398315,961.787659 
	C1036.135254,969.651001 1043.004761,977.400696 1049.742676,985.263184 
	C1056.994751,993.725647 1064.125244,1002.292236 1071.376221,1010.755615 
	C1078.111938,1018.617432 1084.974609,1026.370361 1091.711304,1034.231323 
	C1098.963135,1042.693237 1106.094604,1051.258179 1113.350830,1059.716309 
	C1120.199707,1067.699829 1127.186768,1075.564941 1134.031982,1083.551514 
	C1141.176147,1091.886963 1148.182251,1100.340820 1155.325317,1108.677246 
	C1162.169312,1116.664917 1169.153442,1124.532349 1175.998657,1132.518921 
	C1183.143188,1140.854980 1190.150513,1149.308716 1197.300659,1157.639893 
	C1204.259644,1165.748413 1211.372925,1173.724365 1218.327026,1181.836914 
	C1225.364502,1190.046753 1232.261108,1198.377075 1239.274414,1206.607910 
	C1243.966187,1212.114380 1248.790771,1217.507812 1253.490234,1223.007935 
	C1260.838013,1231.607544 1268.096680,1240.283203 1275.455566,1248.873169 
	C1282.083130,1256.609497 1288.830566,1264.243286 1295.459229,1271.978882 
	C1302.818481,1280.567139 1310.071289,1289.246582 1317.429443,1297.835571 
	C1324.056763,1305.571533 1330.793579,1313.213867 1337.426514,1320.944946 
	C1342.869507,1327.289185 1348.165039,1333.760620 1353.644897,1340.072266 
	C1360.755249,1348.261841 1368.074097,1356.270996 1375.134888,1364.502197 
	C1381.989136,1372.492554 1388.556763,1380.728149 1395.389160,1388.737549 
	C1400.430176,1394.646973 1405.723145,1400.340698 1410.850830,1406.177246 
	C1415.457153,1411.420532 1419.991455,1416.727295 1424.700073,1422.704346 
	C1422.822266,1423.932373 1420.802246,1424.923340 1418.781616,1424.924927 
	C1323.540039,1425.000977 1228.298462,1424.990234 1133.056885,1424.997314 
	C1130.894409,1424.997559 1128.731812,1425.088867 1126.569336,1425.137573 
	C1117.249756,1414.141968 1107.982910,1403.101074 1098.593018,1392.165894 
	C1091.748169,1384.194702 1084.664429,1376.428711 1077.827148,1368.451050 
	C1070.684204,1360.116821 1063.780762,1351.577515 1056.640015,1343.241455 
	C1049.804932,1335.262207 1042.726074,1327.491699 1035.888916,1319.514282 
	C1028.745972,1311.180054 1021.813110,1302.666138 1014.696289,1294.309326 
	C1008.096558,1286.559448 1001.341064,1278.942383 994.716797,1271.213135 
	C987.361145,1262.630493 980.111572,1253.956787 972.750427,1245.378906 
	C966.013733,1237.528687 959.147705,1229.789429 952.415894,1221.935181 
	C945.167419,1213.478149 938.045227,1204.912842 930.800476,1196.452515 
	C924.071777,1188.594849 917.217957,1180.844360 910.485596,1172.989868 
	C903.237366,1164.533325 896.108032,1155.974854 888.849243,1147.527466 
	C882.000854,1139.557495 874.999695,1131.718384 868.161011,1123.740234 
	C861.018677,1115.407715 854.017334,1106.954468 846.901855,1098.598877 
	C842.215332,1093.095459 837.402405,1087.699829 832.705811,1082.204834 
	C825.361755,1073.612183 818.103943,1064.945557 810.742615,1056.367920 
	C804.005737,1048.517944 797.137024,1040.781128 790.405273,1032.926880 
	C783.156921,1024.469727 776.037292,1015.902039 768.792542,1007.441711 
	C762.063599,999.583801 755.206482,991.835632 748.473999,983.980652 
	C741.225342,975.523499 734.098816,966.961548 726.839600,958.513672 
	C719.990906,950.543457 712.986938,942.706421 706.146423,934.729309 
	C699.001404,926.396912 691.988281,917.951660 684.873474,909.593140 
	C683.481201,907.957397 681.887939,906.492798 680.194702,904.347229 
	C679.663757,903.490051 679.325500,903.234985 678.987305,902.979858 
	C678.987305,902.979858 679.012390,902.989807 679.043701,902.684570 
	C678.679810,901.929443 678.284607,901.479553 677.889465,901.029602 
	C677.889465,901.029602 677.956177,900.987610 677.977905,900.554016 
	C677.999451,852.550049 677.985718,804.979614 678.004211,757.409241 
	C678.014709,730.298889 678.077698,703.188599 678.577515,676.049744 
	C681.036926,676.014160 683.035767,676.000854 685.034668,676.000793 
	C795.142761,675.999817 905.250854,676.008850 1015.358948,675.960876 
	C1018.959534,675.959290 1022.559814,675.379333 1026.160278,675.068970 
	C1037.241577,673.280212 1048.358398,671.684998 1059.395752,669.656555 
	C1075.322144,666.729492 1090.013428,660.174500 1104.067261,652.519775 
	C1116.357544,645.825500 1127.738037,637.683594 1138.353149,628.310059 
	C1150.916626,617.216125 1161.499634,604.620056 1170.666260,590.784241 
	C1181.894531,573.836365 1190.427734,555.574829 1194.943604,535.655884 
	C1196.963501,526.745972 1198.348877,517.692200 1200.455811,508.188477 
	C1201.222168,506.977753 1201.841675,506.283661 1201.845215,505.586487 
	C1201.903931,493.881073 1201.947021,482.174530 1201.809814,470.470398 
	C1201.792236,468.964844 1200.750488,467.471283 1200.183105,465.972168 
	C1196.750000,442.605286 1190.578125,420.086578 1179.011719,399.326752 
	C1171.619507,386.058716 1163.079590,373.646790 1152.819214,362.294769 
	C1134.458862,341.980957 1112.584106,326.797668 1087.598511,316.079742 
	C1073.938110,310.219940 1059.779907,305.605713 1044.856323,304.010834 
	C1037.499146,303.224548 1030.122314,302.621918 1022.185303,301.362427 
	C1019.169861,300.526703 1016.723633,300.036194 1014.277344,300.035522 
	C878.372375,299.997437 742.467346,299.996979 606.562378,300.040680 
	C605.025940,300.041168 603.489807,300.668732 601.953491,301.003540 
	C601.953491,301.003540 601.979248,300.957672 601.694580,300.946045 
	C600.904053,301.243561 600.398254,301.552734 599.892395,301.861908 
	C591.326538,307.565887 582.795654,313.323364 574.186096,318.960571 
	C563.018188,326.272858 551.821655,333.542572 540.575012,340.732971 
	C528.070251,348.727722 515.452393,356.545807 502.963715,364.565338 
	C492.138062,371.516998 481.457489,378.694366 470.649536,385.673981 
	C463.109985,390.542938 455.419525,395.178040 447.875275,400.039795 
	C436.786560,407.185669 425.796021,414.483795 414.710266,421.634277 
	C407.166016,426.500397 399.492188,431.165527 391.944855,436.027008 
	C380.855927,443.169769 369.862305,450.460602 358.762787,457.586670 
	C351.075409,462.522125 343.220856,467.197540 335.543365,472.147919 
	C324.589966,479.210571 313.770233,486.480530 302.816895,493.543335 
	C295.139221,498.493896 287.277008,503.158295 279.599274,508.108795 
	C268.645569,515.171631 257.824402,522.439880 246.871979,529.504761 
	C239.055664,534.546692 231.063599,539.316101 223.245300,544.355103 
	C212.430466,551.325439 201.727753,558.469482 190.933884,565.472656 
	C183.395920,570.363403 175.766739,575.113281 168.212296,579.978821 
	C156.989594,587.207031 145.830002,594.533508 134.582733,601.723083 
	C122.075737,609.717896 109.485184,617.581848 96.961830,625.551208 
	C91.204666,629.214905 85.521042,632.994141 79.147537,636.617310 
	C78.327034,634.546143 78.020752,632.578674 78.019615,630.611145 
	C77.977867,558.051880 77.964386,485.492584 77.947052,412.933319 
	C77.947052,412.933319 77.988678,412.996246 78.268005,412.880432 
	C78.728142,412.373322 78.908958,411.981995 79.089767,411.590698 
	C91.673615,403.608704 104.305817,395.701721 116.829231,387.626007 
	C132.935028,377.240295 148.901978,366.639008 165.023834,356.278564 
	C181.959824,345.394928 199.057159,334.762360 215.993134,323.878632 
	C231.707733,313.779846 247.251205,303.414764 262.963928,293.313019 
	C279.899445,282.425079 296.990234,271.778656 313.927582,260.893555 
	C329.641296,250.794876 345.193604,240.445129 360.905548,230.343689 
	C377.842560,219.454681 394.909576,208.768082 411.870300,197.915695 
	C431.576538,185.306580 451.247131,172.641495 470.898651,159.947250 
	C485.716339,150.375504 500.437714,140.654358 515.278259,131.118469 
	C532.079224,120.322838 548.996887,109.708916 565.803589,98.922096 
	C577.529846,91.395996 589.154663,83.711990 601.648499,76.065254 
	C737.837830,76.036674 873.203430,76.030464 1008.569092,76.081421 
	C1014.688782,76.083717 1020.808350,76.602875 1026.927979,76.881294 
	C1049.013428,76.795891 1070.842773,79.240486 1092.404419,83.901192 
	C1105.908936,86.820267 1119.349731,90.051567 1132.760010,93.380844 
	C1139.779907,95.123665 1146.843018,96.933670 1153.582031,99.510101 
	C1163.514893,103.307625 1173.207031,107.745964 1182.942871,112.044281 
	C1190.911865,115.562531 1198.955322,118.967453 1206.670166,122.989830 
	C1214.024170,126.824097 1221.035889,131.326309 1228.124634,135.655090 
	C1235.945679,140.431091 1243.933350,144.991852 1251.389648,150.291931 
	C1259.551147,156.093231 1267.446655,162.335938 1274.995239,168.917038 
	C1287.719238,180.010117 1300.899414,190.755676 1312.376343,203.057541 
	C1325.765869,217.409500 1337.803223,233.063156 1349.930786,248.541092 
	C1363.097778,265.345734 1373.704590,283.863953 1383.191528,302.916443 
	C1395.327881,327.289948 1405.924072,352.338409 1412.055054,379.030457 
	C1415.389282,393.546448 1418.906982,408.025574 1421.896362,422.612732 
	C1423.017334,428.083344 1422.876099,433.812653 1423.335205,440.161072 
	C1424.232422,450.792053 1425.515137,460.671143 1425.875000,470.583710 
	C1426.339966,483.387299 1426.067383,496.217651 1426.112427,509.036499 
	C1425.734009,513.819946 1425.355469,518.603333 1424.681885,524.107544 
	C1423.391724,533.810974 1422.396729,542.793579 1421.401733,551.776184 
	C1420.906006,556.327148 1420.823975,560.970581 1419.831665,565.410583 
	C1417.481445,575.927856 1414.703369,586.349548 1412.090698,596.807983 
	C1406.664917,618.526672 1399.428955,639.652832 1389.584351,659.734558 
	C1382.268555,674.658020 1374.558960,689.491882 1365.695557,703.526123 
	C1355.343750,719.917175 1343.653442,735.472351 1332.312500,751.223572 
	C1328.917358,755.939026 1324.747314,760.096497 1320.373169,764.772217 
	C1319.554932,765.381226 1319.295898,765.727661 1319.036865,766.074036 
	C1319.036865,766.074036 1319.020874,765.999939 1318.779785,766.074707 
	C1318.375854,766.460205 1318.213257,766.771057 1318.050537,767.081848 
	C1318.050537,767.081848 1318.008667,767.010010 1317.776123,767.084900 
	C1317.381958,767.471008 1317.220337,767.782227 1317.058838,768.093506 
	C1317.058838,768.093506 1317.009644,768.019104 1316.781860,768.096924 
	C1316.393921,768.488464 1316.233643,768.802246 1316.073364,769.116028 
	C1316.073364,769.116028 1316.024658,769.032532 1315.799194,769.112000 
	C1315.411987,769.506592 1315.250244,769.821716 1315.088379,770.136841 
	C1315.088379,770.136841 1315.040039,770.048218 1314.814453,770.125427 
	C1314.427612,770.520691 1314.266602,770.838684 1314.105469,771.156738 
	C1314.105469,771.156738 1314.059570,771.060852 1313.831055,771.136414 
	C1313.444946,771.535278 1313.287598,771.858582 1313.130127,772.181885 
	C1313.130127,772.181885 1313.075684,772.083313 1312.848145,772.155762 
	C1312.467651,772.555603 1312.314575,772.883057 1312.161499,773.210510 
	C1312.161499,773.210510 1312.105347,773.102966 1311.823730,773.184204 
	C1310.689575,774.517029 1309.837280,775.768616 1308.984863,777.020203 
	C1308.984863,777.020203 1308.987793,776.989807 1308.714966,777.015137 
	C1308.294434,777.370544 1308.146729,777.700562 1307.999023,778.030579 
	C1307.999023,778.030579 1307.994385,777.995239 1307.722656,778.019104 
	C1307.303345,778.374084 1307.155762,778.705200 1307.008057,779.036316 
	C1307.008057,779.036316 1306.996460,778.996704 1306.726929,779.022705 
	C1306.308228,779.378235 1306.159180,779.707825 1306.010010,780.037476 
	C1306.010132,780.037476 1305.997681,779.997559 1305.728271,780.022705 
	C1305.307251,780.376404 1305.155640,780.704956 1305.004150,781.033569 
	C1305.004150,781.033569 1304.995483,780.994873 1304.726074,781.019897 
	C1304.301636,781.371521 1304.146484,781.698181 1303.991333,782.024780 
	C1303.991333,782.024780 1303.991821,781.990662 1303.721436,782.013855 
	C1303.293701,782.361877 1303.136230,782.686646 1302.978638,783.011414 
	C1302.978638,783.011414 1302.989136,782.986755 1302.662842,782.952271 
	C1301.616455,783.693970 1300.896362,784.470215 1300.176147,785.246460 
	C1300.176147,785.246399 1300.105713,785.138733 1299.880493,785.189941 
	C1299.483887,785.561768 1299.312378,785.882324 1299.140869,786.202881 
	C1299.140869,786.202881 1299.092407,786.092896 1298.863037,786.156860 
	C1298.460938,786.538635 1298.288330,786.856445 1298.115601,787.174316 
	C1298.115601,787.174316 1298.069824,787.073486 1297.841797,787.140869 
	C1297.441772,787.523438 1297.270020,787.838684 1297.098267,788.153992 
	C1297.098267,788.153992 1297.054199,788.057739 1296.827881,788.127319 
	C1296.426636,788.507202 1296.251831,788.817444 1296.076904,789.127686 
	C1296.076904,789.127625 1296.038086,789.036316 1295.811157,789.110413 
	C1295.410645,789.492004 1295.237183,789.799561 1295.063721,790.107056 
	C1295.063599,790.107056 1295.023926,790.020447 1294.795288,790.094849 
	C1294.394653,790.474426 1294.222534,790.779663 1294.050537,791.084900 
	C1294.050537,791.084900 1294.010254,791.009827 1293.777832,791.083496 
	C1293.379761,791.464905 1293.214233,791.772705 1293.048706,792.080505 
	C1293.048706,792.080505 1293.008423,792.008362 1292.772949,792.077942 
	C1292.373901,792.458008 1292.210449,792.768494 1292.046997,793.079041 
	C1292.046997,793.079041 1292.000122,793.021301 1291.717041,793.140869 
	C1291.278564,793.666077 1291.123291,794.071716 1290.968140,794.477356 
z"/>
<path fill="#231F20" opacity="1.000000" stroke="none" 
	d="
M490.999908,1425.209106 
	C452.874695,1425.209106 415.249512,1425.209106 377.114990,1425.209106 
	C377.114990,1423.007080 377.114990,1421.222412 377.114990,1419.437744 
	C377.114990,1123.298584 377.123260,827.159485 377.026428,531.020386 
	C377.025146,527.084473 378.207550,524.815857 381.492218,522.632019 
	C453.693970,474.627808 525.801208,426.481384 598.013489,378.493042 
	C600.450012,376.873840 603.789795,375.836853 606.709839,375.834076 
	C741.697144,375.705627 876.684692,375.667816 1011.672058,375.754395 
	C1055.344116,375.782410 1088.902710,394.483032 1111.662964,431.764313 
	C1140.130615,478.394196 1127.448975,543.196594 1083.979614,576.481323 
	C1062.229248,593.135681 1037.728394,600.667725 1010.539429,600.656311 
	C876.718567,600.600037 742.897705,600.630920 609.076843,600.630981 
	C606.927795,600.630981 604.778687,600.630981 602.197571,600.630981 
	C602.197571,875.493408 602.197571,1150.055176 602.197571,1425.209106 
	C565.011353,1425.209106 528.255615,1425.209106 490.999908,1425.209106 
z"/>
<path fill="#231F20" opacity="1.000000" stroke="none" 
	d="
M302.147583,624.000000 
	C302.147583,891.234741 302.147583,1157.969482 302.147583,1424.918701 
	C227.048508,1424.918701 152.346527,1424.918701 77.211609,1424.918701 
	C77.211609,1422.847534 77.211601,1421.052246 77.211601,1419.256958 
	C77.211594,1190.306396 77.231483,961.355957 77.083977,732.405518 
	C77.080673,727.278198 78.665947,724.473755 82.884125,721.672729 
	C154.272415,674.269104 225.539673,626.683167 296.836365,579.141479 
	C298.331787,578.144287 299.858917,577.194580 302.147583,575.723816 
	C302.147583,592.092529 302.147583,607.796265 302.147583,624.000000 
z"/>
<path fill="#726564" opacity="1.000000" stroke="none" 
	d="
M1026.775391,76.545753 
	C1020.808350,76.602875 1014.688782,76.083717 1008.569092,76.081421 
	C873.203430,76.030464 737.837830,76.036674 601.965698,76.013199 
	C603.178955,75.661728 604.898499,75.038307 606.618286,75.037735 
	C742.051819,74.992920 877.485352,74.985054 1012.918884,75.048233 
	C1017.487061,75.050362 1022.054810,75.805870 1026.775391,76.545753 
z"/>
<path fill="#5B3F3D" opacity="1.000000" stroke="none" 
	d="
M602.425415,301.002502 
	C603.489807,300.668732 605.025940,300.041168 606.562378,300.040680 
	C742.467346,299.996979 878.372375,299.997437 1014.277344,300.035522 
	C1016.723633,300.036194 1019.169861,300.526703 1021.821289,301.177368 
	C1018.373413,301.377441 1014.720459,301.024628 1011.067383,301.023865 
	C875.010681,300.996185 738.953979,301.001007 602.425415,301.002502 
z"/>
<path fill="#5E4C4B" opacity="1.000000" stroke="none" 
	d="
M1025.702393,674.893799 
	C1022.559814,675.379333 1018.959534,675.959290 1015.358948,675.960876 
	C905.250854,676.008850 795.142761,675.999817 685.034668,676.000793 
	C683.035767,676.000854 681.036926,676.014160 678.305908,676.026794 
	C677.392395,676.032227 677.210999,676.032104 677.029602,676.031982 
	C678.831543,675.688293 680.633301,675.044556 682.435364,675.043762 
	C791.709900,674.995911 900.984375,675.004517 1010.258911,674.988831 
	C1015.254089,674.988098 1020.249329,674.812683 1025.702393,674.893799 
z"/>
<path fill="#675959" opacity="1.000000" stroke="none" 
	d="
M1126.891357,1425.458252 
	C1128.731812,1425.088867 1130.894409,1424.997559 1133.056885,1424.997314 
	C1228.298462,1424.990234 1323.540039,1425.000977 1418.781616,1424.924927 
	C1420.802246,1424.923340 1422.822266,1423.932373 1424.892578,1422.956421 
	C1425.636475,1423.356201 1426.330200,1424.202515 1427.517334,1425.650757 
	C1425.757080,1425.808960 1424.699707,1425.987061 1423.642212,1425.987183 
	C1325.825684,1426.000000 1228.009033,1426.000122 1130.192505,1425.990356 
	C1129.199463,1425.990234 1128.206421,1425.852417 1126.891357,1425.458252 
z"/>
<path fill="#5E3F3E" opacity="1.000000" stroke="none" 
	d="
M77.549942,413.124390 
	C77.964386,485.492584 77.977867,558.051880 78.019615,630.611145 
	C78.020752,632.578674 78.327034,634.546143 78.839828,636.764587 
	C78.472145,637.098389 77.755646,637.181213 77.039139,637.263977 
	C77.021103,636.265747 76.987328,635.267517 76.987297,634.269287 
	C76.985008,561.446716 76.984833,488.624176 76.992485,415.801605 
	C76.992577,414.972900 77.097069,414.144165 77.549942,413.124390 
z"/>
<path fill="#813B3D" opacity="1.000000" stroke="none" 
	d="
M676.924683,676.487305 
	C677.210999,676.032104 677.392395,676.032227 677.845398,676.055298 
	C678.077698,703.188599 678.014709,730.298889 678.004211,757.409241 
	C677.985718,804.979614 677.999451,852.550049 677.967163,900.591919 
	C677.549927,899.604126 676.829407,898.145020 676.828552,896.685547 
	C676.786804,823.437927 676.806641,750.190308 676.924683,676.487305 
z"/>
<path fill="#694C4C" opacity="1.000000" stroke="none" 
	d="
M1426.470337,508.797485 
	C1426.067383,496.217651 1426.339966,483.387299 1425.875000,470.583710 
	C1425.515137,460.671143 1424.232422,450.792053 1423.232666,440.532928 
	C1423.730469,441.165802 1424.871094,442.146912 1424.904541,443.164398 
	C1425.620361,464.959930 1426.212402,486.759613 1426.470337,508.797485 
z"/>
<path fill="#7F5657" opacity="1.000000" stroke="none" 
	d="
M1020.971863,900.090515 
	C1036.510864,898.895203 1052.049805,897.699951 1067.850464,896.760010 
	C1060.300415,898.000183 1052.509399,899.224731 1044.671143,899.901184 
	C1037.115234,900.553162 1029.510498,900.638977 1021.458984,900.716187 
	C1020.990601,900.458679 1020.971863,900.090515 1020.971863,900.090515 
z"/>
<path fill="#715252" opacity="1.000000" stroke="none" 
	d="
M1200.118774,466.406311 
	C1200.750488,467.471283 1201.792236,468.964844 1201.809814,470.470398 
	C1201.947021,482.174530 1201.903931,493.881073 1201.845215,505.586487 
	C1201.841675,506.283661 1201.222168,506.977753 1200.512695,507.744202 
	C1200.108765,494.156952 1200.081665,480.498688 1200.118774,466.406311 
z"/>
<path fill="#5E4B4A" opacity="1.000000" stroke="none" 
	d="
M1020.506714,900.056641 
	C1020.971863,900.090515 1020.990601,900.458679 1020.997375,900.642883 
	C1008.631714,900.884705 996.259033,900.923096 983.886963,901.021484 
	C982.105774,901.035645 980.326904,901.339600 978.323242,901.885925 
	C976.309265,898.552795 979.605103,900.080139 980.636230,900.072266 
	C993.770630,899.971130 1006.906250,900.015442 1020.506714,900.056641 
z"/>
<path fill="#775051" opacity="1.000000" stroke="none" 
	d="
M1421.770752,551.592529 
	C1422.396729,542.793579 1423.391724,533.810974 1424.624756,524.532043 
	C1423.954956,533.293457 1423.047363,542.351135 1421.770752,551.592529 
z"/>
<path fill="#835D5E" opacity="1.000000" stroke="none" 
	d="
M1309.297363,776.909119 
	C1309.837280,775.768616 1310.689575,774.517029 1311.879883,773.206909 
	C1311.348511,774.364868 1310.479126,775.581421 1309.297363,776.909119 
z"/>
<path fill="#835D5E" opacity="1.000000" stroke="none" 
	d="
M1300.502686,785.269775 
	C1300.896362,784.470215 1301.616455,783.693970 1302.675781,782.948853 
	C1302.286377,783.751038 1301.557861,784.522034 1300.502686,785.269775 
z"/>
<path fill="#5B3F3D" opacity="1.000000" stroke="none" 
	d="
M600.202576,301.948120 
	C600.398254,301.552734 600.904053,301.243561 601.720398,300.950897 
	C601.524841,301.323059 601.018799,301.678711 600.202576,301.948120 
z"/>
<path fill="#813B3D" opacity="1.000000" stroke="none" 
	d="
M677.772766,901.343506 
	C678.284607,901.479553 678.679810,901.929443 679.045654,902.697876 
	C678.562866,902.563477 678.109436,902.110413 677.772766,901.343506 
z"/>
<path fill="#835D5E" opacity="1.000000" stroke="none" 
	d="
M1298.431396,787.190674 
	C1298.288330,786.856445 1298.460938,786.538635 1298.916748,786.183655 
	C1299.048950,786.500000 1298.898071,786.853516 1298.431396,787.190674 
z"/>
<path fill="#5E3F3E" opacity="1.000000" stroke="none" 
	d="
M78.793045,411.756104 
	C78.908958,411.981995 78.728142,412.373322 78.231979,412.869263 
	C78.109856,412.623077 78.303085,412.272278 78.793045,411.756104 
z"/>
<path fill="#813B3D" opacity="1.000000" stroke="none" 
	d="
M679.057068,903.283203 
	C679.325500,903.234985 679.663757,903.490051 680.025146,904.082825 
	C679.741150,904.142517 679.433960,903.864502 679.057068,903.283203 
z"/>
<path fill="#835D5E" opacity="1.000000" stroke="none" 
	d="
M1319.366211,766.046570 
	C1319.295898,765.727661 1319.554932,765.381226 1320.152466,765.004944 
	C1320.225830,765.323120 1319.960571,765.671143 1319.366211,766.046570 
z"/>
<path fill="#835D5E" opacity="1.000000" stroke="none" 
	d="
M1318.350586,767.080200 
	C1318.213257,766.771057 1318.375854,766.460205 1318.809326,766.098450 
	C1318.936890,766.391174 1318.793701,766.734863 1318.350586,767.080200 
z"/>
<path fill="#835D5E" opacity="1.000000" stroke="none" 
	d="
M1317.363037,768.095947 
	C1317.220337,767.782227 1317.381958,767.471008 1317.812866,767.104309 
	C1317.943726,767.398682 1317.805420,767.748535 1317.363037,768.095947 
z"/>
<path fill="#835D5E" opacity="1.000000" stroke="none" 
	d="
M1291.249512,794.308105 
	C1291.123291,794.071716 1291.278564,793.666077 1291.753418,793.148315 
	C1291.892334,793.403748 1291.711548,793.771301 1291.249512,794.308105 
z"/>
<path fill="#835D5E" opacity="1.000000" stroke="none" 
	d="
M1292.345093,793.070007 
	C1292.210449,792.768494 1292.373901,792.458008 1292.808838,792.098450 
	C1292.934570,792.386597 1292.788818,792.723755 1292.345093,793.070007 
z"/>
<path fill="#835D5E" opacity="1.000000" stroke="none" 
	d="
M1293.351318,792.078613 
	C1293.214233,791.772705 1293.379761,791.464905 1293.814819,791.104614 
	C1293.940796,791.393616 1293.797241,791.735168 1293.351318,792.078613 
z"/>
<path fill="#835D5E" opacity="1.000000" stroke="none" 
	d="
M1294.356934,791.092224 
	C1294.222534,790.779663 1294.394653,790.474426 1294.836792,790.118286 
	C1294.958984,790.411377 1294.811035,790.755432 1294.356934,791.092224 
z"/>
<path fill="#835D5E" opacity="1.000000" stroke="none" 
	d="
M1295.373047,790.115356 
	C1295.237183,789.799561 1295.410645,789.492004 1295.855713,789.132324 
	C1295.978882,789.427979 1295.830688,789.775818 1295.373047,790.115356 
z"/>
<path fill="#835D5E" opacity="1.000000" stroke="none" 
	d="
M1296.388916,789.137451 
	C1296.251831,788.817444 1296.426636,788.507202 1296.876465,788.148560 
	C1297.001099,788.449158 1296.850952,788.798157 1296.388916,789.137451 
z"/>
<path fill="#835D5E" opacity="1.000000" stroke="none" 
	d="
M1297.412964,788.165161 
	C1297.270020,787.838684 1297.441772,787.523438 1297.892456,787.163086 
	C1298.023315,787.470703 1297.875488,787.823547 1297.412964,788.165161 
z"/>
<path fill="#835D5E" opacity="1.000000" stroke="none" 
	d="
M1314.418701,771.162109 
	C1314.266602,770.838684 1314.427612,770.520691 1314.861938,770.142334 
	C1315.000732,770.443909 1314.866211,770.805664 1314.418701,771.162109 
z"/>
<path fill="#835D5E" opacity="1.000000" stroke="none" 
	d="
M1299.456543,786.220215 
	C1299.312378,785.882324 1299.483887,785.561768 1299.941528,785.210327 
	C1300.075928,785.532104 1299.924072,785.884827 1299.456543,786.220215 
z"/>
<path fill="#835D5E" opacity="1.000000" stroke="none" 
	d="
M1316.381104,769.117310 
	C1316.233643,768.802246 1316.393921,768.488464 1316.822876,768.114441 
	C1316.957397,768.408936 1316.823120,768.763733 1316.381104,769.117310 
z"/>
<path fill="#835D5E" opacity="1.000000" stroke="none" 
	d="
M1303.246094,782.958252 
	C1303.136230,782.686646 1303.293701,782.361877 1303.738525,782.014343 
	C1303.854980,782.296143 1303.684204,782.600647 1303.246094,782.958252 
z"/>
<path fill="#835D5E" opacity="1.000000" stroke="none" 
	d="
M1304.260864,781.974854 
	C1304.146484,781.698181 1304.301636,781.371521 1304.745483,781.024536 
	C1304.866211,781.311035 1304.698364,781.617981 1304.260864,781.974854 
z"/>
<path fill="#835D5E" opacity="1.000000" stroke="none" 
	d="
M1305.276367,780.987610 
	C1305.155640,780.704956 1305.307251,780.376404 1305.748169,780.028809 
	C1305.874512,780.320435 1305.711426,780.631042 1305.276367,780.987610 
z"/>
<path fill="#835D5E" opacity="1.000000" stroke="none" 
	d="
M1306.281372,779.989014 
	C1306.159180,779.707825 1306.308228,779.378235 1306.746826,779.028076 
	C1306.875122,779.318542 1306.713989,779.629517 1306.281372,779.989014 
z"/>
<path fill="#835D5E" opacity="1.000000" stroke="none" 
	d="
M1307.278687,778.984863 
	C1307.155762,778.705200 1307.303345,778.374084 1307.740234,778.020874 
	C1307.869385,778.310364 1307.709351,778.621887 1307.278687,778.984863 
z"/>
<path fill="#835D5E" opacity="1.000000" stroke="none" 
	d="
M1308.265747,777.970581 
	C1308.146729,777.700562 1308.294434,777.370544 1308.729736,777.011780 
	C1308.855835,777.292236 1308.694214,777.601440 1308.265747,777.970581 
z"/>
<path fill="#835D5E" opacity="1.000000" stroke="none" 
	d="
M1315.398926,770.140015 
	C1315.250244,769.821716 1315.411987,769.506592 1315.844238,769.129639 
	C1315.979614,769.426208 1315.844604,769.784729 1315.398926,770.140015 
z"/>
<path fill="#835D5E" opacity="1.000000" stroke="none" 
	d="
M1312.477783,773.214722 
	C1312.314575,772.883057 1312.467651,772.555603 1312.901367,772.174072 
	C1313.052734,772.486267 1312.923340,772.852600 1312.477783,773.214722 
z"/>
<path fill="#835D5E" opacity="1.000000" stroke="none" 
	d="
M1313.445435,772.188293 
	C1313.287598,771.858582 1313.444946,771.535278 1313.880371,771.156128 
	C1314.025757,771.465149 1313.893311,771.829895 1313.445435,772.188293 
z"/>
</svg>