<svg version="1.1" id="Layer_1" xmlns="http://www.w3.org/2000/svg" xmlns:xlink="http://www.w3.org/1999/xlink" x="0px" y="0px"
	 width="100%" viewBox="0 0 1500 468" enable-background="new 0 0 1500 468" xml:space="preserve">
<path fill="#FFFEFE" opacity="1.000000" stroke="none" 
	d="
M1188.000000,469.000000 
	C792.050171,469.000000 396.600372,469.000000 1.075282,469.000000 
	C1.075282,313.070007 1.075282,157.139984 1.075282,1.104977 
	C501.000000,1.104977 1001.000000,1.104977 1500.979858,1.104977 
	C1500.979858,157.066422 1500.979858,313.033203 1500.979858,469.000000 
	C1396.806519,469.000000 1292.653198,469.000000 1188.000000,469.000000 
M863.144226,241.668640 
	C861.945007,240.308517 860.483032,239.102142 859.584351,237.566208 
	C817.981384,166.466278 776.402100,95.352448 734.948792,24.165253 
	C733.015991,20.846027 731.002380,19.596045 727.154602,19.709686 
	C716.997009,20.009678 706.824707,19.811249 696.658264,19.811249 
	C689.888916,19.811249 683.119507,19.811249 676.396118,19.811249 
	C676.396118,132.428406 676.396118,244.462524 676.396118,356.492615 
	C695.069519,356.492615 713.342102,356.492615 732.207214,356.492615 
	C732.207214,282.101013 732.207214,207.959518 732.207214,132.341278 
	C733.976257,135.191925 734.957764,136.694717 735.862366,138.242477 
	C777.512451,209.506851 819.181519,280.760223 860.721252,352.088928 
	C862.727722,355.534271 864.820984,356.921204 868.884338,356.850677 
	C884.046082,356.587646 899.215210,356.745605 914.381531,356.745605 
	C916.121155,356.745605 917.860779,356.745605 919.482178,356.745605 
	C919.482178,243.955338 919.482178,132.032578 919.482178,20.120100 
	C900.712402,20.120100 882.289062,20.120100 863.378479,20.120100 
	C863.378479,93.895050 863.378479,167.362076 863.144226,241.668640 
M1020.586060,216.176453 
	C1068.051392,216.176453 1115.516724,216.176453 1163.234619,216.176453 
	C1163.234619,197.334702 1163.234619,178.912933 1163.234619,159.949829 
	C1113.229858,159.949829 1063.498901,159.949829 1013.899353,159.949829 
	C1013.899353,131.683304 1013.899353,103.959938 1013.899353,75.844818 
	C1076.368042,75.844818 1138.454102,75.844818 1200.750732,75.844818 
	C1200.750732,57.045368 1200.750732,38.642673 1200.750732,20.197609 
	C1119.483643,20.197609 1038.464966,20.197609 957.452515,20.197609 
	C957.452515,132.483475 957.452515,244.378174 957.452515,356.507202 
	C1038.666260,356.507202 1119.571045,356.507202 1200.737183,356.507202 
	C1200.737183,337.850006 1200.737183,319.429901 1200.737183,300.394348 
	C1138.439087,300.394348 1076.222290,300.394348 1013.867065,300.394348 
	C1013.867065,272.063202 1013.867065,244.347656 1013.867065,216.176498 
	C1016.013428,216.176498 1017.812561,216.176498 1020.586060,216.176453 
M518.500122,300.443787 
	C496.095978,300.443787 473.691864,300.443787 451.342102,300.443787 
	C451.342102,271.960571 451.342102,244.225723 451.342102,215.959839 
	C498.237366,215.959839 544.792908,215.959839 591.296509,215.959839 
	C591.296509,197.041702 591.296509,178.660919 591.296509,159.801453 
	C544.318665,159.801453 497.748444,159.801453 451.361572,159.801453 
	C451.361572,131.575333 451.361572,103.834869 451.361572,75.746002 
	C513.822388,75.746002 575.922302,75.746002 638.212646,75.746002 
	C638.212646,56.984035 638.212646,38.576157 638.212646,20.130512 
	C556.987183,20.130512 476.079193,20.130512 395.087494,20.130512 
	C395.087494,132.375412 395.087494,244.297104 395.087494,356.433167 
	C476.232269,356.433167 557.117615,356.433167 638.203125,356.433167 
	C638.203125,337.724274 638.203125,319.328522 638.203125,300.444031 
	C598.419006,300.444031 558.959595,300.444031 518.500122,300.443787 
M121.990059,94.489403 
	C130.678024,88.917122 139.318848,83.268684 148.094330,77.837799 
	C149.817352,76.771477 152.059052,76.018257 154.064484,76.011566 
	C187.062790,75.901520 220.061630,75.902000 253.060226,75.952118 
	C265.152618,75.970474 275.835297,79.809769 285.122681,87.746902 
	C299.160309,99.743660 304.269684,119.551826 297.978271,138.755905 
	C292.717255,154.814896 275.782654,168.450439 258.615540,168.859497 
	C231.134216,169.514328 203.631332,169.265335 176.137573,169.396255 
	C174.179459,169.405579 172.221252,169.397476 170.220840,169.397476 
	C170.037781,170.576767 169.851868,171.218277 169.851196,171.860001 
	C169.833313,188.859299 169.742233,205.859741 169.953461,222.856400 
	C169.978867,224.899750 171.245193,227.278076 172.635513,228.902847 
	C208.277451,270.555481 243.988968,312.148773 279.819855,353.638824 
	C281.211304,355.250031 283.894623,356.597931 285.989777,356.617859 
	C308.320190,356.830627 330.653412,356.756256 352.985809,356.729767 
	C354.019989,356.728516 355.053833,356.434296 356.807404,356.166748 
	C319.423615,312.606171 282.525146,269.611145 244.851700,225.713058 
	C248.068481,225.713058 249.904709,225.938751 251.668365,225.676498 
	C263.304901,223.946060 275.469910,223.727936 286.458160,220.031113 
	C335.598541,203.498627 363.226501,157.452728 355.868317,106.193535 
	C349.139648,59.320129 306.496094,20.987316 259.054138,20.100042 
	C224.067688,19.445713 189.061066,19.828861 154.063721,19.897665 
	C151.914276,19.901892 149.501038,20.788261 147.658432,21.965322 
	C106.272186,48.402924 64.972931,74.976768 23.562719,101.376625 
	C20.595093,103.268539 19.735811,105.307114 19.769125,108.622864 
	C19.921486,123.787392 19.836075,138.954300 19.836075,154.120361 
	C19.836075,155.717682 19.836075,157.314987 19.836075,160.024780 
	C54.273193,137.939636 87.831223,116.418282 121.990059,94.489403 
M1482.142334,68.434517 
	C1482.142334,52.334892 1482.142334,36.235271 1482.142334,20.142700 
	C1400.616699,20.142700 1319.726440,20.142700 1238.804932,20.142700 
	C1238.804932,38.879074 1238.804932,57.277912 1238.804932,76.153000 
	C1270.097168,76.153000 1301.010010,76.153000 1332.375244,76.153000 
	C1332.375244,169.870224 1332.375244,263.107117 1332.375244,356.378387 
	C1351.229858,356.378387 1369.622437,356.378387 1388.517944,356.378387 
	C1388.517944,262.758423 1388.517944,169.503265 1388.517944,75.790649 
	C1419.945557,75.790649 1450.869019,75.790649 1482.142334,75.790649 
	C1482.142334,73.361099 1482.142334,71.388412 1482.142334,68.434517 
M94.829079,203.499954 
	C94.829079,254.423904 94.829079,305.347870 94.829079,356.491150 
	C113.755409,356.491150 132.157639,356.491150 151.038437,356.491150 
	C151.038437,287.880768 151.038437,219.510544 151.038437,150.833649 
	C153.315079,150.833649 155.116028,150.833649 156.916992,150.833633 
	C188.568192,150.833572 220.219574,150.893631 251.870544,150.809021 
	C268.621124,150.764236 281.079742,139.979660 282.003113,125.025208 
	C283.089325,107.433479 270.754639,94.759995 252.095581,94.691811 
	C219.611877,94.573112 187.127258,94.615036 154.643692,94.750450 
	C152.335327,94.760078 149.718262,95.604462 147.776367,96.873909 
	C131.207672,107.705086 114.799957,118.782417 98.239082,129.625732 
	C95.715012,131.278381 94.742058,133.005447 94.759682,136.032822 
	C94.888649,158.187897 94.829124,180.344101 94.829079,203.499954 
M66.383644,150.919662 
	C52.113361,160.404587 37.901875,169.980255 23.523672,179.298660 
	C20.614889,181.183838 19.763165,183.252640 19.768953,186.575333 
	C19.864754,241.552063 19.835276,296.528992 19.846264,351.505890 
	C19.846586,353.116577 19.982311,354.727264 20.060596,356.464233 
	C38.825188,356.464233 57.227211,356.464233 75.677383,356.464233 
	C75.677383,285.884308 75.677383,215.573792 75.677383,144.761795 
	C72.476372,146.877411 69.728775,148.693359 66.383644,150.919662 
M904.105225,437.485443 
	C904.105225,431.792511 904.105225,426.099579 904.105225,420.406647 
	C910.823425,428.729523 916.746826,437.118866 922.266663,445.765869 
	C924.599121,449.419708 927.173157,450.762573 931.337646,449.146790 
	C931.337646,436.870453 931.337646,424.643768 931.337646,412.345551 
	C929.619385,412.345551 928.193726,412.345551 926.098022,412.345551 
	C926.098022,422.049713 926.098022,431.508514 926.098022,440.967285 
	C919.640015,432.864807 913.891907,424.755127 908.670776,416.319366 
	C906.272400,412.444305 903.575134,411.123596 899.193604,412.530090 
	C899.193604,424.780273 899.193604,437.015686 899.193604,449.337341 
	C900.936401,449.337341 902.432068,449.337341 904.105225,449.337341 
	C904.105225,445.451050 904.105225,441.963196 904.105225,437.485443 
M152.162674,417.678894 
	C152.162674,428.260132 152.162674,438.841400 152.162674,449.774780 
	C154.242004,449.629608 155.640701,449.531952 157.545837,449.398926 
	C157.545837,443.833710 157.545837,438.609680 157.545837,433.581451 
	C161.482391,432.312592 163.630524,433.483398 165.148132,436.748718 
	C166.610428,439.895020 168.775955,442.712921 170.259491,445.851379 
	C171.947372,449.422119 174.275421,450.709656 178.542648,449.030884 
	C175.162292,443.547119 171.902084,438.258270 168.616913,432.928955 
	C175.968430,429.640442 178.383255,425.775116 177.067581,419.898712 
	C175.954102,414.925385 171.738724,412.229584 164.714645,412.106598 
	C160.752350,412.037170 156.787857,412.094086 152.463272,412.094086 
	C152.349243,413.850891 152.255966,415.287964 152.162674,417.678894 
M1116.518188,431.886322 
	C1115.431519,435.096008 1114.344971,438.305695 1112.810669,442.838257 
	C1110.993164,437.039673 1109.308594,432.738220 1108.349121,428.280701 
	C1107.510376,424.383606 1105.486328,423.952087 1101.952881,425.065948 
	C1104.300537,432.205505 1106.515381,439.308899 1109.039551,446.300629 
	C1109.531982,447.664825 1111.407349,449.643890 1112.322998,449.485046 
	C1113.764893,449.234894 1115.520020,447.651886 1116.109863,446.210541 
	C1117.991211,441.613770 1119.396606,436.822235 1121.324829,431.099915 
	C1123.518066,437.312836 1125.167725,442.369904 1127.149414,447.293304 
	C1127.575562,448.351868 1129.107544,449.271515 1130.309570,449.601440 
	C1131.079468,449.812805 1132.794434,449.038910 1133.035278,448.343109 
	C1135.709351,440.617096 1138.177734,432.820007 1140.711670,425.011353 
	C1137.043945,424.006500 1135.414673,424.719635 1134.697388,428.054810 
	C1133.699585,432.694885 1132.062988,437.197571 1130.340698,442.960663 
	C1128.310791,437.126007 1126.917358,432.516083 1125.052612,428.105438 
	C1124.441162,426.658936 1122.562500,424.772461 1121.343018,424.828247 
	C1120.078857,424.886108 1118.792114,426.964386 1117.749146,428.336823 
	C1117.181152,429.084412 1117.098877,430.201050 1116.518188,431.886322 
M467.105255,422.504761 
	C467.105255,420.748810 467.105255,418.992859 467.105255,416.857971 
	C473.833466,416.857971 479.929504,416.857971 486.322815,416.857971 
	C486.111359,415.049377 485.949066,413.661346 485.807220,412.448181 
	C477.660736,412.448181 469.937988,412.448181 462.360474,412.448181 
	C462.360474,425.006897 462.360474,437.215057 462.360474,449.382080 
	C470.771912,449.382080 478.824249,449.382080 486.924500,449.382080 
	C486.924500,447.782257 486.924500,446.522186 486.924500,444.813568 
	C480.312439,444.813568 473.902832,444.813568 467.411621,444.813568 
	C467.411621,440.641327 467.411621,436.926300 467.411621,432.876892 
	C473.315125,432.876892 478.919464,432.876892 484.724915,432.876892 
	C484.724915,431.159576 484.724915,429.782684 484.724915,427.888733 
	C478.767365,427.888733 473.045532,427.888733 467.105255,427.888733 
	C467.105255,426.062469 467.105255,424.752899 467.105255,422.504761 
M1323.375000,436.981934 
	C1323.941040,435.791382 1324.273438,434.391357 1325.117310,433.449615 
	C1327.628052,430.647736 1330.339722,428.026001 1333.283081,425.016846 
	C1324.705933,422.765411 1322.835449,431.524536 1316.916016,434.184204 
	C1316.916016,426.032867 1316.916016,418.165161 1316.916016,410.007629 
	C1315.052124,410.007629 1313.653320,410.007629 1312.155518,410.007629 
	C1312.155518,423.225311 1312.155518,436.288513 1312.155518,449.748627 
	C1313.812988,449.601379 1315.175293,449.480347 1316.915283,449.325745 
	C1316.915283,445.353333 1316.915283,441.791748 1316.915283,437.134674 
	C1320.064209,440.588043 1322.663574,443.085968 1324.834106,445.913086 
	C1327.262817,449.076324 1329.923096,450.773560 1334.508179,449.050537 
	C1330.784912,445.004547 1327.332031,441.252533 1323.375000,436.981934 
M223.610672,445.814911 
	C230.093719,452.076080 238.288742,451.849884 244.058090,445.186554 
	C242.536148,442.845123 241.271317,442.660126 238.497421,444.195648 
	C236.157120,445.491089 232.519745,445.372528 229.771957,444.661194 
	C228.068008,444.220093 226.952927,441.504364 225.573532,439.809631 
	C225.886276,439.414215 226.199020,439.018799 226.511765,438.623383 
	C232.908295,438.623383 239.304825,438.623383 245.700745,438.623383 
	C245.048019,428.940399 241.646011,424.485107 234.776184,424.012177 
	C229.533386,423.651245 225.362106,425.461151 222.601593,430.158630 
	C219.563156,435.329071 220.227768,440.295410 223.610672,445.814911 
M977.318787,439.020721 
	C978.225098,444.365631 980.843567,448.524231 986.335815,449.742340 
	C991.754333,450.944122 996.905457,450.134796 1000.952881,445.121338 
	C999.725159,444.208588 998.596802,443.369690 997.366943,442.455383 
	C994.264954,445.784515 990.768066,447.287354 986.902588,445.060547 
	C984.954956,443.938538 983.616943,441.758453 982.003296,440.056824 
	C982.340027,439.644257 982.676697,439.231659 983.013428,438.819092 
	C989.297668,438.819092 995.581970,438.819092 1001.838745,438.819092 
	C1002.444824,428.352448 996.265564,422.283783 987.274597,424.158386 
	C981.019165,425.462646 977.226013,430.735565 977.318787,439.020721 
M788.372925,423.975952 
	C780.864746,424.437714 776.023254,428.427277 775.067749,434.939758 
	C774.186279,440.948120 777.462585,447.117401 782.655273,449.226837 
	C788.623596,451.651398 794.718628,450.006836 798.318420,444.993500 
	C796.675171,442.428345 795.197815,442.675842 792.768066,444.485077 
	C787.890808,448.116730 781.974854,445.412354 780.438843,438.888092 
	C786.929504,438.888092 793.336121,438.888092 799.706116,438.888092 
	C800.340332,429.906372 797.240601,425.637512 788.372925,423.975952 
M1208.257935,441.400818 
	C1209.883789,434.775970 1208.306152,429.972687 1203.374023,426.531738 
	C1198.284180,422.980743 1193.178711,422.968201 1188.116577,426.494446 
	C1183.453247,429.742920 1181.355103,435.094269 1182.915771,440.433563 
	C1184.442017,445.655090 1188.024780,449.037018 1193.351318,449.945251 
	C1200.064819,451.089905 1204.891479,448.072693 1208.257935,441.400818 
M297.552643,450.168610 
	C300.333191,449.389038 303.113739,448.609467 305.590973,447.914948 
	C306.965759,448.559143 308.541931,449.297729 310.742340,450.328796 
	C310.742340,443.789612 310.836823,438.482239 310.713257,433.179901 
	C310.609314,428.719055 308.518250,425.488678 303.995697,424.465057 
	C299.099274,423.356812 294.521790,424.081818 290.678894,428.211945 
	C292.385590,428.916199 294.238678,429.396393 295.683777,428.831970 
	C301.530914,426.548096 305.025940,428.087677 305.803741,433.614349 
	C302.531555,434.052856 299.199524,434.237915 296.002686,434.994354 
	C292.048096,435.930023 288.808472,438.007111 288.965149,442.722626 
	C289.126648,447.584167 292.138519,449.734558 297.552643,450.168610 
M651.635437,439.500488 
	C650.170471,443.009399 650.744568,446.312744 653.820435,448.399200 
	C658.642273,451.670044 663.492188,450.506470 666.975342,447.808411 
	C669.194214,448.751404 670.691711,449.387848 672.780701,450.275635 
	C672.780701,443.814270 672.982971,438.336853 672.723206,432.881500 
	C672.468994,427.543457 669.600769,424.351196 664.271973,424.257599 
	C660.370300,424.189117 656.444397,425.498383 652.319824,426.230774 
	C653.866577,430.844788 655.660217,429.982605 658.078674,428.850708 
	C663.639771,426.248077 667.543335,428.419128 667.541077,432.174469 
	C661.970398,434.549805 656.983398,436.676270 651.635437,439.500488 
M537.144226,429.228333 
	C539.080078,429.225220 541.436218,428.517334 542.862854,429.368103 
	C545.689819,431.053955 546.976624,429.959534 548.404968,427.883453 
	C544.467590,423.713776 538.578247,422.502289 534.534546,425.640106 
	C532.728027,427.041901 531.148865,429.956573 531.191284,432.151306 
	C531.227966,434.049164 533.393555,436.322998 535.194519,437.645996 
	C536.822449,438.841919 539.339294,438.748138 541.253723,439.663239 
	C542.420898,440.221100 543.190063,441.611694 544.137939,442.628204 
	C542.994873,443.632904 541.983704,445.177490 540.673401,445.497650 
	C539.229309,445.850525 537.111084,445.583466 535.990845,444.696716 
	C533.302368,442.568390 531.668640,443.304016 529.757202,446.510498 
	C531.719543,447.636719 533.520935,449.158081 535.590637,449.765778 
	C541.492554,451.498566 547.837341,448.899780 549.145142,444.561066 
	C550.630615,439.632965 548.373108,437.204376 540.331543,434.645691 
	C538.140381,433.948486 535.019531,433.543579 537.144226,429.228333 
M603.347595,445.575073 
	C602.500854,444.475677 600.998596,443.419037 600.923523,442.269257 
	C600.636108,437.866516 600.807312,433.433807 600.807312,428.974884 
	C603.139282,428.870087 604.936707,428.789337 606.964111,428.698212 
	C608.671265,422.297424 602.712158,425.765747 600.674438,423.478210 
	C600.674438,422.004700 600.674438,420.074799 600.674438,417.823792 
	C598.897766,417.823792 597.520447,417.823792 596.036987,417.823792 
	C595.832703,420.065521 595.644653,422.128326 595.459290,424.162354 
	C593.503113,424.468445 591.930054,424.714569 590.473328,424.942474 
	C588.860352,430.687500 594.049194,427.811005 595.826172,429.742889 
	C595.826172,433.757263 595.745544,438.061615 595.845703,442.361725 
	C595.985474,448.360870 598.952942,451.012024 604.676880,449.979218 
	C605.793884,449.777679 606.635925,448.052277 607.604736,447.029724 
	C606.470825,446.596954 605.336853,446.164215 603.347595,445.575073 
M1048.356689,421.826172 
	C1046.793213,423.166046 1045.229736,424.505890 1042.732910,426.645569 
	C1041.413940,430.647766 1046.850342,427.760834 1048.102417,429.432678 
	C1048.355591,434.910950 1048.220703,440.255188 1048.955444,445.477081 
	C1049.635986,450.314087 1053.843384,450.422943 1057.534790,449.923401 
	C1058.739380,449.760376 1059.700439,447.796753 1061.465088,445.920685 
	C1053.808960,445.555450 1053.262207,444.999756 1053.204590,438.866913 
	C1053.174194,435.627594 1053.199341,432.387695 1053.199341,429.081940 
	C1055.772583,428.893280 1057.725708,428.750061 1059.716797,428.604095 
	C1061.348755,421.866852 1055.135132,426.069458 1053.402954,423.461029 
	C1053.266113,421.880615 1053.087036,419.812592 1052.912842,417.799347 
	C1049.817749,417.082489 1047.898438,417.457275 1048.356689,421.826172 
M731.742615,427.429504 
	C731.888672,421.944672 726.814331,426.164948 724.894287,423.429993 
	C724.894287,421.982056 724.894287,420.029083 724.894287,417.809570 
	C723.175842,417.809570 721.779907,417.809570 720.241516,417.809570 
	C720.068420,420.099579 719.911133,422.180206 719.754456,424.253479 
	C717.359863,424.968140 712.957825,423.459442 715.150940,428.578735 
	C716.794861,428.769135 718.342102,428.948334 720.007507,429.141205 
	C720.007507,431.698273 719.944336,433.854187 720.022156,436.005035 
	C720.141846,439.311951 719.876526,442.732849 720.647339,445.892517 
	C721.788635,450.571228 725.945068,450.446045 729.588562,449.855133 
	C730.682129,449.677765 731.456177,447.530792 732.376648,446.286133 
	C731.731750,446.430023 731.086853,446.573944 730.441956,446.717834 
	C728.628235,445.196106 725.572021,443.898590 725.248840,442.107910 
	C724.479126,437.842560 725.000793,433.344147 725.000793,429.230469 
	C727.592834,428.821503 729.526611,428.516357 731.742615,427.429504 
M361.227753,435.492859 
	C361.227753,427.033997 361.227753,418.575165 361.227753,409.997406 
	C359.484528,409.997406 358.228577,409.997406 356.573975,409.997406 
	C356.573975,422.536499 356.490143,434.846069 356.729279,447.149414 
	C356.748932,448.160187 358.965027,449.128296 360.160553,450.116211 
	C360.516296,449.727264 360.872040,449.338318 361.227783,448.949341 
	C361.227783,444.795532 361.227783,440.641693 361.227753,435.492859 
M1253.727661,441.343506 
	C1253.727661,443.979950 1253.727661,446.616364 1253.727661,449.714874 
	C1255.532593,449.556000 1256.877563,449.437622 1258.515869,449.293396 
	C1258.515869,444.836945 1258.301147,440.840454 1258.566284,436.876068 
	C1258.961792,430.961792 1260.646851,429.500885 1266.651367,429.061951 
	C1267.075073,429.030975 1267.485474,428.815460 1268.082520,428.629547 
	C1267.986572,427.058167 1267.899048,425.625244 1267.755127,423.267059 
	C1264.400635,424.479370 1261.580933,425.498413 1259.853394,426.122742 
	C1257.531006,425.363007 1255.944214,424.843933 1253.727783,424.118866 
	C1253.727783,430.118530 1253.727783,435.254150 1253.727661,441.343506 
z"/>
<path fill="#E41D37" opacity="1.000000" stroke="none" 
	d="
M863.261353,241.248871 
	C863.378479,167.362076 863.378479,93.895050 863.378479,20.120100 
	C882.289062,20.120100 900.712402,20.120100 919.482178,20.120100 
	C919.482178,132.032578 919.482178,243.955338 919.482178,356.745605 
	C917.860779,356.745605 916.121155,356.745605 914.381531,356.745605 
	C899.215210,356.745605 884.046082,356.587646 868.884338,356.850677 
	C864.820984,356.921204 862.727722,355.534271 860.721252,352.088928 
	C819.181519,280.760223 777.512451,209.506851 735.862366,138.242477 
	C734.957764,136.694717 733.976257,135.191925 732.207214,132.341278 
	C732.207214,207.959518 732.207214,282.101013 732.207214,356.492615 
	C713.342102,356.492615 695.069519,356.492615 676.396118,356.492615 
	C676.396118,244.462524 676.396118,132.428406 676.396118,19.811249 
	C683.119507,19.811249 689.888916,19.811249 696.658264,19.811249 
	C706.824707,19.811249 716.997009,20.009678 727.154602,19.709686 
	C731.002380,19.596045 733.015991,20.846027 734.948792,24.165253 
	C776.402100,95.352448 817.981384,166.466278 859.584351,237.566208 
	C860.483032,239.102142 861.945007,240.308517 863.261353,241.248871 
z"/>
<path fill="#E41D37" opacity="1.000000" stroke="none" 
	d="
M1020.098877,216.176483 
	C1017.812561,216.176498 1016.013428,216.176498 1013.867065,216.176498 
	C1013.867065,244.347656 1013.867065,272.063202 1013.867065,300.394348 
	C1076.222290,300.394348 1138.439087,300.394348 1200.737183,300.394348 
	C1200.737183,319.429901 1200.737183,337.850006 1200.737183,356.507202 
	C1119.571045,356.507202 1038.666260,356.507202 957.452515,356.507202 
	C957.452515,244.378174 957.452515,132.483475 957.452515,20.197609 
	C1038.464966,20.197609 1119.483643,20.197609 1200.750732,20.197609 
	C1200.750732,38.642673 1200.750732,57.045368 1200.750732,75.844818 
	C1138.454102,75.844818 1076.368042,75.844818 1013.899353,75.844818 
	C1013.899353,103.959938 1013.899353,131.683304 1013.899353,159.949829 
	C1063.498901,159.949829 1113.229858,159.949829 1163.234619,159.949829 
	C1163.234619,178.912933 1163.234619,197.334702 1163.234619,216.176453 
	C1115.516724,216.176453 1068.051392,216.176453 1020.098877,216.176483 
z"/>
<path fill="#E41D37" opacity="1.000000" stroke="none" 
	d="
M519.000122,300.443909 
	C558.959595,300.444031 598.419006,300.444031 638.203125,300.444031 
	C638.203125,319.328522 638.203125,337.724274 638.203125,356.433167 
	C557.117615,356.433167 476.232269,356.433167 395.087494,356.433167 
	C395.087494,244.297104 395.087494,132.375412 395.087494,20.130512 
	C476.079193,20.130512 556.987183,20.130512 638.212646,20.130512 
	C638.212646,38.576157 638.212646,56.984035 638.212646,75.746002 
	C575.922302,75.746002 513.822388,75.746002 451.361572,75.746002 
	C451.361572,103.834869 451.361572,131.575333 451.361572,159.801453 
	C497.748444,159.801453 544.318665,159.801453 591.296509,159.801453 
	C591.296509,178.660919 591.296509,197.041702 591.296509,215.959839 
	C544.792908,215.959839 498.237366,215.959839 451.342102,215.959839 
	C451.342102,244.225723 451.342102,271.960571 451.342102,300.443787 
	C473.691864,300.443787 496.095978,300.443787 519.000122,300.443909 
z"/>
<path fill="#E41D37" opacity="1.000000" stroke="none" 
	d="
M121.689651,94.693161 
	C87.831223,116.418282 54.273193,137.939636 19.836075,160.024780 
	C19.836075,157.314987 19.836075,155.717682 19.836075,154.120361 
	C19.836075,138.954300 19.921486,123.787392 19.769125,108.622864 
	C19.735811,105.307114 20.595093,103.268539 23.562719,101.376625 
	C64.972931,74.976768 106.272186,48.402924 147.658432,21.965322 
	C149.501038,20.788261 151.914276,19.901892 154.063721,19.897665 
	C189.061066,19.828861 224.067688,19.445713 259.054138,20.100042 
	C306.496094,20.987316 349.139648,59.320129 355.868317,106.193535 
	C363.226501,157.452728 335.598541,203.498627 286.458160,220.031113 
	C275.469910,223.727936 263.304901,223.946060 251.668365,225.676498 
	C249.904709,225.938751 248.068481,225.713058 244.851700,225.713058 
	C282.525146,269.611145 319.423615,312.606171 356.807404,356.166748 
	C355.053833,356.434296 354.019989,356.728516 352.985809,356.729767 
	C330.653412,356.756256 308.320190,356.830627 285.989777,356.617859 
	C283.894623,356.597931 281.211304,355.250031 279.819855,353.638824 
	C243.988968,312.148773 208.277451,270.555481 172.635513,228.902847 
	C171.245193,227.278076 169.978867,224.899750 169.953461,222.856400 
	C169.742233,205.859741 169.833313,188.859299 169.851196,171.860001 
	C169.851868,171.218277 170.037781,170.576767 170.220840,169.397476 
	C172.221252,169.397476 174.179459,169.405579 176.137573,169.396255 
	C203.631332,169.265335 231.134216,169.514328 258.615540,168.859497 
	C275.782654,168.450439 292.717255,154.814896 297.978271,138.755905 
	C304.269684,119.551826 299.160309,99.743660 285.122681,87.746902 
	C275.835297,79.809769 265.152618,75.970474 253.060226,75.952118 
	C220.061630,75.902000 187.062790,75.901520 154.064484,76.011566 
	C152.059052,76.018257 149.817352,76.771477 148.094330,77.837799 
	C139.318848,83.268684 130.678024,88.917122 121.689651,94.693161 
z"/>
<path fill="#E41D37" opacity="1.000000" stroke="none" 
	d="
M1482.142334,68.925125 
	C1482.142334,71.388412 1482.142334,73.361099 1482.142334,75.790649 
	C1450.869019,75.790649 1419.945557,75.790649 1388.517944,75.790649 
	C1388.517944,169.503265 1388.517944,262.758423 1388.517944,356.378387 
	C1369.622437,356.378387 1351.229858,356.378387 1332.375244,356.378387 
	C1332.375244,263.107117 1332.375244,169.870224 1332.375244,76.153000 
	C1301.010010,76.153000 1270.097168,76.153000 1238.804932,76.153000 
	C1238.804932,57.277912 1238.804932,38.879074 1238.804932,20.142700 
	C1319.726440,20.142700 1400.616699,20.142700 1482.142334,20.142700 
	C1482.142334,36.235271 1482.142334,52.334892 1482.142334,68.925125 
z"/>
<path fill="#242021" opacity="1.000000" stroke="none" 
	d="
M94.829071,202.999939 
	C94.829124,180.344101 94.888649,158.187897 94.759682,136.032822 
	C94.742058,133.005447 95.715012,131.278381 98.239082,129.625732 
	C114.799957,118.782417 131.207672,107.705086 147.776367,96.873909 
	C149.718262,95.604462 152.335327,94.760078 154.643692,94.750450 
	C187.127258,94.615036 219.611877,94.573112 252.095581,94.691811 
	C270.754639,94.759995 283.089325,107.433479 282.003113,125.025208 
	C281.079742,139.979660 268.621124,150.764236 251.870544,150.809021 
	C220.219574,150.893631 188.568192,150.833572 156.916992,150.833633 
	C155.116028,150.833649 153.315079,150.833649 151.038437,150.833649 
	C151.038437,219.510544 151.038437,287.880768 151.038437,356.491150 
	C132.157639,356.491150 113.755409,356.491150 94.829079,356.491150 
	C94.829079,305.347870 94.829079,254.423904 94.829071,202.999939 
z"/>
<path fill="#242021" opacity="1.000000" stroke="none" 
	d="
M66.682411,150.714478 
	C69.728775,148.693359 72.476372,146.877411 75.677383,144.761795 
	C75.677383,215.573792 75.677383,285.884308 75.677383,356.464233 
	C57.227211,356.464233 38.825188,356.464233 20.060596,356.464233 
	C19.982311,354.727264 19.846586,353.116577 19.846264,351.505890 
	C19.835276,296.528992 19.864754,241.552063 19.768953,186.575333 
	C19.763165,183.252640 20.614889,181.183838 23.523672,179.298660 
	C37.901875,169.980255 52.113361,160.404587 66.682411,150.714478 
z"/>
<path fill="#343031" opacity="1.000000" stroke="none" 
	d="
M904.105225,437.980408 
	C904.105225,441.963196 904.105225,445.451050 904.105225,449.337341 
	C902.432068,449.337341 900.936401,449.337341 899.193604,449.337341 
	C899.193604,437.015686 899.193604,424.780273 899.193604,412.530090 
	C903.575134,411.123596 906.272400,412.444305 908.670776,416.319366 
	C913.891907,424.755127 919.640015,432.864807 926.098022,440.967285 
	C926.098022,431.508514 926.098022,422.049713 926.098022,412.345551 
	C928.193726,412.345551 929.619385,412.345551 931.337646,412.345551 
	C931.337646,424.643768 931.337646,436.870453 931.337646,449.146790 
	C927.173157,450.762573 924.599121,449.419708 922.266663,445.765869 
	C916.746826,437.118866 910.823425,428.729523 904.105225,420.406647 
	C904.105225,426.099579 904.105225,431.792511 904.105225,437.980408 
z"/>
<path fill="#312D2E" opacity="1.000000" stroke="none" 
	d="
M152.162689,417.201965 
	C152.255966,415.287964 152.349243,413.850891 152.463272,412.094086 
	C156.787857,412.094086 160.752350,412.037170 164.714645,412.106598 
	C171.738724,412.229584 175.954102,414.925385 177.067581,419.898712 
	C178.383255,425.775116 175.968430,429.640442 168.616913,432.928955 
	C171.902084,438.258270 175.162292,443.547119 178.542648,449.030884 
	C174.275421,450.709656 171.947372,449.422119 170.259491,445.851379 
	C168.775955,442.712921 166.610428,439.895020 165.148132,436.748718 
	C163.630524,433.483398 161.482391,432.312592 157.545837,433.581451 
	C157.545837,438.609680 157.545837,443.833710 157.545837,449.398926 
	C155.640701,449.531952 154.242004,449.629608 152.162674,449.774780 
	C152.162674,438.841400 152.162674,428.260132 152.162689,417.201965 
M171.117615,419.461884 
	C167.206009,415.242767 162.331177,417.145752 157.664978,416.811890 
	C157.664978,421.067627 157.664978,424.772614 157.664978,428.606506 
	C160.498474,428.606506 162.993347,428.834473 165.431778,428.560394 
	C170.984848,427.936157 172.326874,425.949310 171.117615,419.461884 
z"/>
<path fill="#2F2C2D" opacity="1.000000" stroke="none" 
	d="
M1116.657837,431.518799 
	C1117.098877,430.201050 1117.181152,429.084412 1117.749146,428.336823 
	C1118.792114,426.964386 1120.078857,424.886108 1121.343018,424.828247 
	C1122.562500,424.772461 1124.441162,426.658936 1125.052612,428.105438 
	C1126.917358,432.516083 1128.310791,437.126007 1130.340698,442.960663 
	C1132.062988,437.197571 1133.699585,432.694885 1134.697388,428.054810 
	C1135.414673,424.719635 1137.043945,424.006500 1140.711670,425.011353 
	C1138.177734,432.820007 1135.709351,440.617096 1133.035278,448.343109 
	C1132.794434,449.038910 1131.079468,449.812805 1130.309570,449.601440 
	C1129.107544,449.271515 1127.575562,448.351868 1127.149414,447.293304 
	C1125.167725,442.369904 1123.518066,437.312836 1121.324829,431.099915 
	C1119.396606,436.822235 1117.991211,441.613770 1116.109863,446.210541 
	C1115.520020,447.651886 1113.764893,449.234894 1112.322998,449.485046 
	C1111.407349,449.643890 1109.531982,447.664825 1109.039551,446.300629 
	C1106.515381,439.308899 1104.300537,432.205505 1101.952881,425.065948 
	C1105.486328,423.952087 1107.510376,424.383606 1108.349121,428.280701 
	C1109.308594,432.738220 1110.993164,437.039673 1112.810669,442.838257 
	C1114.344971,438.305695 1115.431519,435.096008 1116.657837,431.518799 
z"/>
<path fill="#2D292A" opacity="1.000000" stroke="none" 
	d="
M467.105255,422.974030 
	C467.105255,424.752899 467.105255,426.062469 467.105255,427.888733 
	C473.045532,427.888733 478.767365,427.888733 484.724915,427.888733 
	C484.724915,429.782684 484.724915,431.159576 484.724915,432.876892 
	C478.919464,432.876892 473.315125,432.876892 467.411621,432.876892 
	C467.411621,436.926300 467.411621,440.641327 467.411621,444.813568 
	C473.902832,444.813568 480.312439,444.813568 486.924500,444.813568 
	C486.924500,446.522186 486.924500,447.782257 486.924500,449.382080 
	C478.824249,449.382080 470.771912,449.382080 462.360474,449.382080 
	C462.360474,437.215057 462.360474,425.006897 462.360474,412.448181 
	C469.937988,412.448181 477.660736,412.448181 485.807220,412.448181 
	C485.949066,413.661346 486.111359,415.049377 486.322815,416.857971 
	C479.929504,416.857971 473.833466,416.857971 467.105255,416.857971 
	C467.105255,418.992859 467.105255,420.748810 467.105255,422.974030 
z"/>
<path fill="#322E2F" opacity="1.000000" stroke="none" 
	d="
M1323.627197,437.241241 
	C1327.332031,441.252533 1330.784912,445.004547 1334.508179,449.050537 
	C1329.923096,450.773560 1327.262817,449.076324 1324.834106,445.913086 
	C1322.663574,443.085968 1320.064209,440.588043 1316.915283,437.134674 
	C1316.915283,441.791748 1316.915283,445.353333 1316.915283,449.325745 
	C1315.175293,449.480347 1313.812988,449.601379 1312.155518,449.748627 
	C1312.155518,436.288513 1312.155518,423.225311 1312.155518,410.007629 
	C1313.653320,410.007629 1315.052124,410.007629 1316.916016,410.007629 
	C1316.916016,418.165161 1316.916016,426.032867 1316.916016,434.184204 
	C1322.835449,431.524536 1324.705933,422.765411 1333.283081,425.016846 
	C1330.339722,428.026001 1327.628052,430.647736 1325.117310,433.449615 
	C1324.273438,434.391357 1323.941040,435.791382 1323.627197,437.241241 
z"/>
<path fill="#2E2A2B" opacity="1.000000" stroke="none" 
	d="
M223.390091,445.511139 
	C220.227768,440.295410 219.563156,435.329071 222.601593,430.158630 
	C225.362106,425.461151 229.533386,423.651245 234.776184,424.012177 
	C241.646011,424.485107 245.048019,428.940399 245.700745,438.623383 
	C239.304825,438.623383 232.908295,438.623383 226.511765,438.623383 
	C226.199020,439.018799 225.886276,439.414215 225.573532,439.809631 
	C226.952927,441.504364 228.068008,444.220093 229.771957,444.661194 
	C232.519745,445.372528 236.157120,445.491089 238.497421,444.195648 
	C241.271317,442.660126 242.536148,442.845123 244.058090,445.186554 
	C238.288742,451.849884 230.093719,452.076080 223.390091,445.511139 
M227.996979,434.992462 
	C232.050827,434.992462 236.104691,434.992462 240.915466,434.992462 
	C240.014816,432.859375 239.745956,431.288757 238.848877,430.272858 
	C236.143524,427.209229 232.781464,427.189423 229.403946,429.063599 
	C226.626053,430.605072 226.071289,432.314301 227.996979,434.992462 
z"/>
<path fill="#2E2A2B" opacity="1.000000" stroke="none" 
	d="
M977.240479,438.618378 
	C977.226013,430.735565 981.019165,425.462646 987.274597,424.158386 
	C996.265564,422.283783 1002.444824,428.352448 1001.838745,438.819092 
	C995.581970,438.819092 989.297668,438.819092 983.013428,438.819092 
	C982.676697,439.231659 982.340027,439.644257 982.003296,440.056824 
	C983.616943,441.758453 984.954956,443.938538 986.902588,445.060547 
	C990.768066,447.287354 994.264954,445.784515 997.366943,442.455383 
	C998.596802,443.369690 999.725159,444.208588 1000.952881,445.121338 
	C996.905457,450.134796 991.754333,450.944122 986.335815,449.742340 
	C980.843567,448.524231 978.225098,444.365631 977.240479,438.618378 
M992.804138,428.270477 
	C985.877014,427.541199 983.345032,429.220459 982.945862,434.859314 
	C987.545349,434.859314 992.140381,434.859314 998.130554,434.859314 
	C996.216919,432.293884 994.862061,430.477509 992.804138,428.270477 
z"/>
<path fill="#2E2A2B" opacity="1.000000" stroke="none" 
	d="
M788.791138,423.990601 
	C797.240601,425.637512 800.340332,429.906372 799.706116,438.888092 
	C793.336121,438.888092 786.929504,438.888092 780.438843,438.888092 
	C781.974854,445.412354 787.890808,448.116730 792.768066,444.485077 
	C795.197815,442.675842 796.675171,442.428345 798.318420,444.993500 
	C794.718628,450.006836 788.623596,451.651398 782.655273,449.226837 
	C777.462585,447.117401 774.186279,440.948120 775.067749,434.939758 
	C776.023254,428.427277 780.864746,424.437714 788.791138,423.990601 
M786.012939,428.083984 
	C783.833862,429.930054 781.654785,431.776123 779.475708,433.622192 
	C779.802002,434.012451 780.128296,434.402710 780.454590,434.792969 
	C785.202332,434.792969 789.950134,434.792969 794.733215,434.792969 
	C793.731812,429.220215 792.579895,428.257507 786.012939,428.083984 
z"/>
<path fill="#2F2C2D" opacity="1.000000" stroke="none" 
	d="
M1208.135010,441.774780 
	C1204.891479,448.072693 1200.064819,451.089905 1193.351318,449.945251 
	C1188.024780,449.037018 1184.442017,445.655090 1182.915771,440.433563 
	C1181.355103,435.094269 1183.453247,429.742920 1188.116577,426.494446 
	C1193.178711,422.968201 1198.284180,422.980743 1203.374023,426.531738 
	C1208.306152,429.972687 1209.883789,434.775970 1208.135010,441.774780 
M1198.541260,445.143951 
	C1203.505859,442.266907 1205.172729,437.830719 1203.048584,433.147766 
	C1201.326660,429.351501 1197.262085,427.660522 1193.027588,428.978851 
	C1188.891724,430.266449 1186.852173,434.499603 1187.953979,439.509308 
	C1188.938721,443.985596 1192.166504,445.889374 1198.541260,445.143951 
z"/>
<path fill="#343132" opacity="1.000000" stroke="none" 
	d="
M297.132812,450.139526 
	C292.138519,449.734558 289.126648,447.584167 288.965149,442.722626 
	C288.808472,438.007111 292.048096,435.930023 296.002686,434.994354 
	C299.199524,434.237915 302.531555,434.052856 305.803741,433.614349 
	C305.025940,428.087677 301.530914,426.548096 295.683777,428.831970 
	C294.238678,429.396393 292.385590,428.916199 290.678894,428.211945 
	C294.521790,424.081818 299.099274,423.356812 303.995697,424.465057 
	C308.518250,425.488678 310.609314,428.719055 310.713257,433.179901 
	C310.836823,438.482239 310.742340,443.789612 310.742340,450.328796 
	C308.541931,449.297729 306.965759,448.559143 305.590973,447.914948 
	C303.113739,448.609467 300.333191,449.389038 297.132812,450.139526 
M305.878937,438.298035 
	C302.849609,438.433350 299.704407,438.135956 296.844025,438.902069 
	C295.575256,439.241882 294.187134,441.726837 294.178192,443.245819 
	C294.172455,444.217590 296.486237,445.826904 297.940216,446.068970 
	C302.708740,446.862823 305.037750,444.680298 305.878937,438.298035 
z"/>
<path fill="#343131" opacity="1.000000" stroke="none" 
	d="
M651.815918,439.151611 
	C656.983398,436.676270 661.970398,434.549805 667.541077,432.174469 
	C667.543335,428.419128 663.639771,426.248077 658.078674,428.850708 
	C655.660217,429.982605 653.866577,430.844788 652.319824,426.230774 
	C656.444397,425.498383 660.370300,424.189117 664.271973,424.257599 
	C669.600769,424.351196 672.468994,427.543457 672.723206,432.881500 
	C672.982971,438.336853 672.780701,443.814270 672.780701,450.275635 
	C670.691711,449.387848 669.194214,448.751404 666.975342,447.808411 
	C663.492188,450.506470 658.642273,451.670044 653.820435,448.399200 
	C650.744568,446.312744 650.170471,443.009399 651.815918,439.151611 
M656.107910,440.934540 
	C655.205688,445.115417 657.548340,446.269379 661.094177,446.213318 
	C665.948547,446.136536 667.945557,443.660461 667.624634,436.875122 
	C663.748901,438.037933 660.131348,439.123291 656.107910,440.934540 
z"/>
<path fill="#2F2B2C" opacity="1.000000" stroke="none" 
	d="
M536.834961,429.498871 
	C535.019531,433.543579 538.140381,433.948486 540.331543,434.645691 
	C548.373108,437.204376 550.630615,439.632965 549.145142,444.561066 
	C547.837341,448.899780 541.492554,451.498566 535.590637,449.765778 
	C533.520935,449.158081 531.719543,447.636719 529.757202,446.510498 
	C531.668640,443.304016 533.302368,442.568390 535.990845,444.696716 
	C537.111084,445.583466 539.229309,445.850525 540.673401,445.497650 
	C541.983704,445.177490 542.994873,443.632904 544.137939,442.628235 
	C543.190063,441.611694 542.420898,440.221100 541.253723,439.663239 
	C539.339294,438.748138 536.822449,438.841919 535.194519,437.645996 
	C533.393555,436.322998 531.227966,434.049164 531.191284,432.151306 
	C531.148865,429.956573 532.728027,427.041901 534.534546,425.640106 
	C538.578247,422.502289 544.467590,423.713776 548.404968,427.883453 
	C546.976624,429.959534 545.689819,431.053955 542.862854,429.368103 
	C541.436218,428.517334 539.080078,429.225220 536.834961,429.498871 
z"/>
<path fill="#353132" opacity="1.000000" stroke="none" 
	d="
M603.775269,445.653259 
	C605.336853,446.164215 606.470825,446.596954 607.604736,447.029724 
	C606.635925,448.052277 605.793884,449.777679 604.676880,449.979218 
	C598.952942,451.012024 595.985474,448.360870 595.845703,442.361725 
	C595.745544,438.061615 595.826172,433.757263 595.826172,429.742889 
	C594.049194,427.811005 588.860352,430.687500 590.473328,424.942474 
	C591.930054,424.714569 593.503113,424.468445 595.459290,424.162354 
	C595.644653,422.128326 595.832703,420.065521 596.036987,417.823792 
	C597.520447,417.823792 598.897766,417.823792 600.674438,417.823792 
	C600.674438,420.074799 600.674438,422.004700 600.674438,423.478210 
	C602.712158,425.765747 608.671265,422.297424 606.964111,428.698212 
	C604.936707,428.789337 603.139282,428.870087 600.807312,428.974884 
	C600.807312,433.433807 600.636108,437.866516 600.923523,442.269257 
	C600.998596,443.419037 602.500854,444.475677 603.775269,445.653259 
z"/>
<path fill="#332F30" opacity="1.000000" stroke="none" 
	d="
M1048.358643,421.396393 
	C1047.898438,417.457275 1049.817749,417.082489 1052.912842,417.799347 
	C1053.087036,419.812592 1053.266113,421.880615 1053.402954,423.461029 
	C1055.135132,426.069458 1061.348755,421.866852 1059.716797,428.604095 
	C1057.725708,428.750061 1055.772583,428.893280 1053.199341,429.081940 
	C1053.199341,432.387695 1053.174194,435.627594 1053.204590,438.866913 
	C1053.262207,444.999756 1053.808960,445.555450 1061.465088,445.920685 
	C1059.700439,447.796753 1058.739380,449.760376 1057.534790,449.923401 
	C1053.843384,450.422943 1049.635986,450.314087 1048.955444,445.477081 
	C1048.220703,440.255188 1048.355591,434.910950 1048.102417,429.432678 
	C1046.850342,427.760834 1041.413940,430.647766 1042.732910,426.645569 
	C1045.229736,424.505890 1046.793213,423.166046 1048.358643,421.396393 
z"/>
<path fill="#2F2B2C" opacity="1.000000" stroke="none" 
	d="
M731.601562,427.820374 
	C729.526611,428.516357 727.592834,428.821503 725.000793,429.230469 
	C725.000793,433.344147 724.479126,437.842560 725.248840,442.107910 
	C725.572021,443.898590 728.628235,445.196106 730.441956,446.717834 
	C731.086853,446.573944 731.731750,446.430023 732.376648,446.286133 
	C731.456177,447.530792 730.682129,449.677765 729.588562,449.855133 
	C725.945068,450.446045 721.788635,450.571228 720.647339,445.892517 
	C719.876526,442.732849 720.141846,439.311951 720.022156,436.005035 
	C719.944336,433.854187 720.007507,431.698273 720.007507,429.141205 
	C718.342102,428.948334 716.794861,428.769135 715.150940,428.578735 
	C712.957825,423.459442 717.359863,424.968140 719.754456,424.253479 
	C719.911133,422.180206 720.068420,420.099579 720.241516,417.809570 
	C721.779907,417.809570 723.175842,417.809570 724.894287,417.809570 
	C724.894287,420.029083 724.894287,421.982056 724.894287,423.429993 
	C726.814331,426.164948 731.888672,421.944672 731.601562,427.820374 
z"/>
<path fill="#252122" opacity="1.000000" stroke="none" 
	d="
M361.227783,435.990356 
	C361.227783,440.641693 361.227783,444.795532 361.227783,448.949341 
	C360.872040,449.338318 360.516296,449.727264 360.160553,450.116211 
	C358.965027,449.128296 356.748932,448.160187 356.729279,447.149414 
	C356.490143,434.846069 356.573975,422.536499 356.573975,409.997406 
	C358.228577,409.997406 359.484528,409.997406 361.227753,409.997406 
	C361.227753,418.575165 361.227753,427.033997 361.227783,435.990356 
z"/>
<path fill="#2A2627" opacity="1.000000" stroke="none" 
	d="
M1253.727783,440.866638 
	C1253.727783,435.254150 1253.727783,430.118530 1253.727783,424.118866 
	C1255.944214,424.843933 1257.531006,425.363007 1259.853394,426.122742 
	C1261.580933,425.498413 1264.400635,424.479370 1267.755127,423.267059 
	C1267.899048,425.625244 1267.986572,427.058167 1268.082520,428.629547 
	C1267.485474,428.815460 1267.075073,429.030975 1266.651367,429.061951 
	C1260.646851,429.500885 1258.961792,430.961792 1258.566284,436.876068 
	C1258.301147,440.840454 1258.515869,444.836945 1258.515869,449.293396 
	C1256.877563,449.437622 1255.532593,449.556000 1253.727661,449.714874 
	C1253.727661,446.616364 1253.727661,443.979950 1253.727783,440.866638 
z"/>
<path fill="#F3F2F2" opacity="1.000000" stroke="none" 
	d="
M171.294464,419.827667 
	C172.326874,425.949310 170.984848,427.936157 165.431778,428.560394 
	C162.993347,428.834473 160.498474,428.606506 157.664978,428.606506 
	C157.664978,424.772614 157.664978,421.067627 157.664978,416.811890 
	C162.331177,417.145752 167.206009,415.242767 171.294464,419.827667 
z"/>
<path fill="#FAFAFA" opacity="1.000000" stroke="none" 
	d="
M227.557434,434.983521 
	C226.071289,432.314301 226.626053,430.605072 229.403946,429.063599 
	C232.781464,427.189423 236.143524,427.209229 238.848877,430.272858 
	C239.745956,431.288757 240.014816,432.859375 240.915466,434.992462 
	C236.104691,434.992462 232.050827,434.992462 227.557434,434.983521 
z"/>
<path fill="#F8F7F7" opacity="1.000000" stroke="none" 
	d="
M993.155640,428.465820 
	C994.862061,430.477509 996.216919,432.293884 998.130554,434.859314 
	C992.140381,434.859314 987.545349,434.859314 982.945862,434.859314 
	C983.345032,429.220459 985.877014,427.541199 993.155640,428.465820 
z"/>
<path fill="#F8F7F7" opacity="1.000000" stroke="none" 
	d="
M786.408447,428.036987 
	C792.579895,428.257507 793.731812,429.220215 794.733215,434.792969 
	C789.950134,434.792969 785.202332,434.792969 780.454590,434.792969 
	C780.128296,434.402710 779.802002,434.012451 779.475708,433.622192 
	C781.654785,431.776123 783.833862,429.930054 786.408447,428.036987 
z"/>
<path fill="#FAF9F9" opacity="1.000000" stroke="none" 
	d="
M1198.170898,445.230347 
	C1192.166504,445.889374 1188.938721,443.985596 1187.953979,439.509308 
	C1186.852173,434.499603 1188.891724,430.266449 1193.027588,428.978851 
	C1197.262085,427.660522 1201.326660,429.351501 1203.048584,433.147766 
	C1205.172729,437.830719 1203.505859,442.266907 1198.170898,445.230347 
z"/>
<path fill="#F8F8F8" opacity="1.000000" stroke="none" 
	d="
M305.949341,438.728699 
	C305.037750,444.680298 302.708740,446.862823 297.940216,446.068970 
	C296.486237,445.826904 294.172455,444.217590 294.178192,443.245819 
	C294.187134,441.726837 295.575256,439.241882 296.844025,438.902069 
	C299.704407,438.135956 302.849609,438.433350 305.949341,438.728699 
z"/>
<path fill="#F8F8F8" opacity="1.000000" stroke="none" 
	d="
M656.310791,440.571594 
	C660.131348,439.123291 663.748901,438.037933 667.624634,436.875122 
	C667.945557,443.660461 665.948547,446.136536 661.094177,446.213318 
	C657.548340,446.269379 655.205688,445.115417 656.310791,440.571594 
z"/>
</svg>